<svg id="eleve-flat" xmlns="http://www.w3.org/2000/svg" viewBox="0 0 244.5 143.82"><defs><style>.cls-1{stroke-linejoin:round;stroke-width:.44px;}.cls-1,.cls-2,.cls-3,.cls-4{fill:none;stroke:#000;}.cls-5{fill:#e6e6e6;}.cls-6{fill:#fff;}.cls-7{fill:#f1f2f2;}.cls-8{fill:#bcbec0;}.cls-9{fill:#d1d3d4;}.cls-2{stroke-width:.22px;}.cls-2,.cls-3,.cls-4{stroke-miterlimit:10;}.cls-2,.cls-4{stroke-linecap:round;}.cls-3{stroke-width:.46px;}.cls-4{stroke-width:.23px;}</style></defs><g id="flat-trim-group"><polygon class="cls-6" points="33.1 25.1 36.69 .69 38.62 .24 35.14 25.32 33.1 25.1"></polygon><path class="cls-6" d="m103.84,7.06c-2.92,9.03-8.72,13.76-14.84,17.85-.8.54-1.72.87-2.68.98-7.36.81-14.61,2.03-23.87,5.88-1.25.52-2.66.52-3.91,0-9.4-3.9-16.73-5.1-24.21-5.91-.73-.08-1.42-.33-2.03-.73-6.23-4.14-11.61-8.56-15.07-18.23l1.94-.96c2.87,8.75,7.51,12.91,13.74,17.05.61.4,1.3.66,2.03.73,7.48.81,14.19,2.01,23.59,5.91,1.25.52,2.66.52,3.91,0,9.26-3.85,15.89-5.06,23.25-5.88.96-.11,1.88-.44,2.68-.98,6.12-4.09,10.63-8.11,13.46-16.72l2,1.02Z"></path><polygon class="cls-6" points="199.36 30.01 205.5 .85 207.42 1.3 201.4 29.62 199.36 30.01"></polygon><path class="cls-6" d="m183.72,34.36c9.27-.05,19.63-2.66,27.35-8.15,9.12-6.49,12.9-9.81,15.71-18.73l-1.94-.96c-2.15,9.49-9.58,14.59-14.39,17.87-7.8,5.31-17.51,8.1-26.74,8.16-9.23-.06-18.93-2.85-26.74-8.16-4.81-3.27-12.24-8.38-14.39-17.87l-1.94.96c2.82,8.92,6.6,12.24,15.71,18.73,7.72,5.49,18.08,8.1,27.35,8.15Z"></path><g id="BoS_Sleeve"><path class="cls-6" d="m1.77,19.1l9.75,17.05c-.2.1-1.33.77-1.53.87L.14,20.28c.59-.36,1.09-.85,1.63-1.17Z"></path></g><g id="BoS_Sleeve-2"><path class="cls-6" d="m119.11,19l-9.75,17.05c.2.1,1.33.77,1.53.87l9.85-16.74c-.59-.36-1.09-.85-1.63-1.17Z"></path></g><g id="BoS_Sleeve-3"><path class="cls-6" d="m242.75,19.46l-9.75,17.05c.2.1,1.33.77,1.53.87l9.85-16.74c-.59-.36-1.09-.85-1.63-1.17Z"></path></g><g id="BoS_Sleeve-4"><path class="cls-6" d="m124.98,19.41l9.75,17.05c-.2.1-1.33.77-1.53.87l-9.85-16.74c.59-.36,1.09-.85,1.63-1.17Z"></path></g><polyline class="cls-6" points="168.94 30.31 162.8 1.15 160.87 1.6 166.75 29.47 168.94 30.31"></polyline><polyline class="cls-6" points="87.59 23.42 84.34 .69 82.42 .24 85.68 23.96"></polyline></g><g id="flat-sleeves-group"><path class="cls-9" d="m94.27,36.16s-2.62-6.36-6.19-10.55l.49-.34c6.23-4.14,11.85-8.26,15.31-17.94h.46s1.87.77,14.83,11.75l-9.75,17c-3.78-1.63-7.5-3.22-10.52-2.3-2.61.8-4.46,2.68-4.46,2.68l-.17-.31Z"></path><path class="cls-9" d="m26.74,36.08s2.62-6.36,6.19-10.55l-.49-.34c-6.23-4.14-11.65-8.6-15.11-18.28l-.16.08s-2.36,1.04-15.33,12.01l9.75,17c3.78-1.63,7.5-3.22,10.52-2.3,2.61.8,4.46,2.68,4.46,2.68l.17-.31Z"></path><path class="cls-9" d="m217.05,36.18c-1.02-1.17-3.99-4.88-5.87-9.75l.82-.81c6.48-4.18,12-8.39,14.85-17.97l.71.26s2.07.55,15.04,11.53l-9.75,17c-3.78-1.63-7.5-3.22-10.52-2.3-2.61.8-4.62,2.82-4.62,2.82l-.66-.77Z"></path><path class="cls-9" d="m150.62,36.13c1.02-1.17,3.99-4.88,5.87-9.75l-.82-.81c-6.48-4.18-12-8.39-14.85-17.97l-.71.26s-2.07.55-15.04,11.53l9.75,17c3.78-1.63,7.5-3.22,10.52-2.3,2.61.8,4.62,2.82,4.62,2.82l.66-.77Z"></path></g><g id="flat-underlay-group"><path class="cls-8" d="m31.67,60.5c5.14,0,18.29.01,26.51-2.24,1.42-.39,2.92-.39,4.33,0,8.22,2.25,21.37,2.24,26.51,2.24,1.89-8.56,4.52-18.11,5.25-24.08,0,0-2.48-6.8-6.18-10.96-7.36,1.05-16.03,2.54-27.51,6.88-10.82-4.38-19.23-5.61-27.68-6.88-3.7,4.16-6.49,10.96-6.49,10.96.73,5.96,3.36,15.51,5.25,24.08Z"></path></g><g id="flat-bust-group"><path class="cls-5" d="m31.67,60.5c5.14,0,18.29.01,26.51-2.24,1.42-.39,2.92-.39,4.33,0,8.22,2.25,21.37,2.24,26.51,2.24,1.89-8.56,4.52-18.11,5.25-24.08,0,0-2.52-6.67-6.22-10.83-8.37.87-16.25,2.67-27.38,6.83-11.08-4.51-19.48-6.05-27.86-6.92-3.7,4.16-6.4,10.91-6.4,10.91.73,5.96,3.36,15.51,5.25,24.08Z"></path><path class="cls-5" d="m154.95,61.07c-1.89-8.55-4.38-18.07-5.11-24.04,0,0,5.48-5.38,6.76-10.56,7.31,4.25,16.23,8.02,27.11,8.02s21.72-3.94,27.46-8.15c1.28,5.33,6.51,10.69,6.51,10.69-.73,5.97-3.22,15.52-5.11,24.08,0,0-11.33,4.61-28.86,4.61s-28.78-4.64-28.78-4.64Z"></path></g><g id="flat-base-group"><path class="cls-7" d="m31.67,60.5c1.28,5.8,2.14,11.14,2.15,14.62.04,8.67-8.2,20.46-8.02,38.48,10.52.66,26.92,9.56,26.18,28.6,0,0,4.9.75,8.36.75s8.36-.75,8.36-.75c-.75-19.04,15.66-27.94,26.18-28.6.18-18.02-8.05-29.81-8.02-38.48.01-3.48.88-8.82,2.15-14.62-5.14,0-18.29.01-26.51-2.24-1.42-.39-2.92-.39-4.33,0-8.22,2.25-21.37,2.24-26.51,2.24Z"></path><path class="cls-7" d="m154.95,61.07s11.25,4.64,28.78,4.64,28.86-4.61,28.86-4.61c-1.28,5.77-2.28,11.1-2.3,14.57-.04,8.67,8.2,20.41,8.02,38.43-5.3,15.56-26.18,28.67-26.18,28.67,0,0-4.2.75-8.51.75-4.31,0-8.51-.76-8.51-.76,0,0-20.57-13.12-25.87-28.67-.18-18.02,8.04-29.75,8.01-38.42-.01-3.48-1.03-8.81-2.31-14.6Z"></path></g><g id="outlines"><g id="Back_Outlines"><path class="cls-3" d="m211.21,26.23s-.04.03-.06.05c-7.72,5.49-18.08,8.1-27.35,8.15-9.27-.05-19.63-2.64-27.35-8.14-1.49,5.06-6.53,10.81-6.53,10.81,1.23,10,7.38,30.02,7.41,38.64s-8.19,20.4-8.01,38.42c5.3,15.56,25.87,28.67,25.87,28.67,0,0,4.2.76,8.51.76,4.31,0,8.51-.75,8.51-.75,0,0,20.87-13.12,26.18-28.67.18-18.02-8.05-29.76-8.02-38.43.04-8.62,6.18-28.65,7.4-38.64,0,0-5.09-5.65-6.56-10.86Z"></path><path class="cls-3" d="m212.37,61.17s-11.04,4.61-28.57,4.61-28.48-4.61-28.48-4.61"></path><line class="cls-4" x1="218.56" y1="111.8" x2="218.37" y2="112.39"></line><line class="cls-4" x1="217.97" y1="111.62" x2="217.79" y2="112.19"></line><path class="cls-4" d="m218.24,112.77c-.07.19-.13.39-.21.58"></path><path class="cls-4" d="m217.66,112.56c-.06.19-.13.38-.2.56"></path><line class="cls-4" x1="217.89" y1="113.72" x2="217.66" y2="114.28"></line><line class="cls-4" x1="217.32" y1="113.49" x2="217.09" y2="114.05"></line><line class="cls-4" x1="217.51" y1="114.65" x2="217.26" y2="115.21"></line><line class="cls-4" x1="216.95" y1="114.41" x2="216.7" y2="114.96"></line><line class="cls-4" x1="217.1" y1="115.58" x2="216.83" y2="116.13"></line><line class="cls-4" x1="216.54" y1="115.32" x2="216.28" y2="115.86"></line><line class="cls-4" x1="216.65" y1="116.48" x2="216.38" y2="117.03"></line><line class="cls-4" x1="216.11" y1="116.21" x2="215.83" y2="116.75"></line><line class="cls-4" x1="216.19" y1="117.38" x2="215.89" y2="117.92"></line><line class="cls-4" x1="215.65" y1="117.09" x2="215.36" y2="117.62"></line><line class="cls-4" x1="215.7" y1="118.26" x2="215.39" y2="118.79"></line><line class="cls-4" x1="215.17" y1="117.96" x2="214.86" y2="118.48"></line><line class="cls-4" x1="215.19" y1="119.14" x2="214.87" y2="119.66"></line><line class="cls-4" x1="214.66" y1="118.82" x2="214.35" y2="119.33"></line><line class="cls-4" x1="214.66" y1="119.99" x2="214.33" y2="120.51"></line><line class="cls-4" x1="214.14" y1="119.66" x2="213.81" y2="120.17"></line><line class="cls-4" x1="214.11" y1="120.84" x2="213.77" y2="121.34"></line><line class="cls-4" x1="213.6" y1="120.5" x2="213.26" y2="121"></line><line class="cls-4" x1="213.54" y1="121.67" x2="213.19" y2="122.17"></line><line class="cls-4" x1="213.04" y1="121.32" x2="212.69" y2="121.82"></line><line class="cls-4" x1="212.96" y1="122.49" x2="212.6" y2="122.99"></line><line class="cls-4" x1="212.46" y1="122.13" x2="212.1" y2="122.62"></line><line class="cls-4" x1="212.36" y1="123.3" x2="211.99" y2="123.79"></line><line class="cls-4" x1="211.87" y1="122.94" x2="211.51" y2="123.42"></line><line class="cls-4" x1="211.75" y1="124.1" x2="211.37" y2="124.58"></line><line class="cls-4" x1="211.27" y1="123.73" x2="210.89" y2="124.2"></line><line class="cls-4" x1="211.13" y1="124.89" x2="210.74" y2="125.37"></line><line class="cls-4" x1="210.65" y1="124.51" x2="210.27" y2="124.98"></line><line class="cls-4" x1="210.49" y1="125.67" x2="210.1" y2="126.14"></line><line class="cls-4" x1="210.02" y1="125.28" x2="209.63" y2="125.75"></line><line class="cls-4" x1="209.84" y1="126.44" x2="209.44" y2="126.91"></line><line class="cls-4" x1="209.37" y1="126.05" x2="208.98" y2="126.5"></line><line class="cls-4" x1="209.18" y1="127.2" x2="208.78" y2="127.66"></line><line class="cls-4" x1="208.72" y1="126.8" x2="208.32" y2="127.25"></line><line class="cls-4" x1="208.51" y1="127.95" x2="208.1" y2="128.41"></line><line class="cls-4" x1="208.06" y1="127.54" x2="207.65" y2="127.99"></line><line class="cls-4" x1="207.83" y1="128.7" x2="207.42" y2="129.14"></line><line class="cls-4" x1="207.38" y1="128.28" x2="206.97" y2="128.72"></line><line class="cls-4" x1="207.15" y1="129.43" x2="206.72" y2="129.87"></line><line class="cls-4" x1="206.7" y1="129.01" x2="206.28" y2="129.44"></line><line class="cls-4" x1="206.45" y1="130.16" x2="206.02" y2="130.59"></line><line class="cls-4" x1="206.01" y1="129.73" x2="205.59" y2="130.16"></line><line class="cls-4" x1="205.74" y1="130.87" x2="205.31" y2="131.3"></line><line class="cls-4" x1="205.31" y1="130.44" x2="204.88" y2="130.87"></line><line class="cls-4" x1="205.03" y1="131.58" x2="204.6" y2="132.01"></line><line class="cls-4" x1="204.6" y1="131.14" x2="204.17" y2="131.56"></line><line class="cls-4" x1="204.31" y1="132.28" x2="203.87" y2="132.7"></line><line class="cls-4" x1="203.88" y1="131.84" x2="203.45" y2="132.26"></line><line class="cls-4" x1="203.58" y1="132.97" x2="203.14" y2="133.39"></line><line class="cls-4" x1="203.16" y1="132.53" x2="202.72" y2="132.94"></line><line class="cls-4" x1="202.85" y1="133.66" x2="202.4" y2="134.07"></line><line class="cls-4" x1="202.43" y1="133.21" x2="201.98" y2="133.62"></line><line class="cls-4" x1="202.11" y1="134.34" x2="201.65" y2="134.74"></line><line class="cls-4" x1="201.69" y1="133.88" x2="201.24" y2="134.28"></line><line class="cls-4" x1="201.36" y1="135.01" x2="200.9" y2="135.41"></line><line class="cls-4" x1="200.95" y1="134.55" x2="200.49" y2="134.95"></line><line class="cls-4" x1="200.6" y1="135.67" x2="200.14" y2="136.07"></line><line class="cls-4" x1="200.2" y1="135.2" x2="199.74" y2="135.6"></line><line class="cls-4" x1="199.84" y1="136.32" x2="199.37" y2="136.72"></line><line class="cls-4" x1="199.44" y1="135.86" x2="198.98" y2="136.25"></line><line class="cls-4" x1="199.07" y1="136.97" x2="198.6" y2="137.36"></line><line class="cls-4" x1="198.68" y1="136.5" x2="198.21" y2="136.89"></line><line class="cls-4" x1="198.3" y1="137.61" x2="197.83" y2="138"></line><line class="cls-4" x1="197.91" y1="137.14" x2="197.44" y2="137.52"></line><line class="cls-4" x1="197.52" y1="138.25" x2="197.04" y2="138.63"></line><line class="cls-4" x1="197.13" y1="137.77" x2="196.66" y2="138.15"></line><line class="cls-4" x1="196.73" y1="138.87" x2="196.25" y2="139.25"></line><line class="cls-4" x1="196.35" y1="138.39" x2="195.88" y2="138.76"></line><line class="cls-4" x1="195.94" y1="139.49" x2="195.46" y2="139.86"></line><line class="cls-4" x1="195.57" y1="139.01" x2="195.09" y2="139.37"></line><line class="cls-4" x1="195.14" y1="140.1" x2="194.66" y2="140.47"></line><line class="cls-4" x1="194.77" y1="139.61" x2="194.29" y2="139.98"></line><line class="cls-4" x1="194.34" y1="140.7" x2="193.85" y2="141.06"></line><line class="cls-4" x1="193.97" y1="140.21" x2="193.48" y2="140.57"></line><line class="cls-4" x1="193.53" y1="141.3" x2="193.03" y2="141.65"></line><line class="cls-4" x1="193.17" y1="140.8" x2="192.67" y2="141.15"></line><line class="cls-4" x1="192.71" y1="141.88" x2="192.2" y2="142.23"></line><line class="cls-4" x1="192.35" y1="141.38" x2="191.86" y2="141.72"></line><line class="cls-4" x1="191.87" y1="142.45" x2="191.36" y2="142.79"></line><line class="cls-4" x1="191.53" y1="141.94" x2="191.03" y2="142.27"></line><path class="cls-4" d="m191.03,143c-.17.11-.35.22-.54.32"></path><path class="cls-4" d="m190.7,142.48c-.17.11-.34.21-.51.3"></path><line class="cls-4" x1="149.73" y1="111.92" x2="149.93" y2="112.49"></line><line class="cls-4" x1="149.15" y1="112.12" x2="149.35" y2="112.7"></line><line class="cls-4" x1="150.07" y1="112.86" x2="150.29" y2="113.43"></line><line class="cls-4" x1="149.49" y1="113.08" x2="149.72" y2="113.66"></line><line class="cls-4" x1="150.44" y1="113.8" x2="150.67" y2="114.36"></line><line class="cls-4" x1="149.87" y1="114.03" x2="150.11" y2="114.6"></line><line class="cls-4" x1="150.83" y1="114.72" x2="151.09" y2="115.28"></line><line class="cls-4" x1="150.27" y1="114.97" x2="150.53" y2="115.54"></line><line class="cls-4" x1="151.25" y1="115.63" x2="151.52" y2="116.18"></line><line class="cls-4" x1="150.7" y1="115.9" x2="150.97" y2="116.46"></line><line class="cls-4" x1="151.7" y1="116.53" x2="151.98" y2="117.08"></line><line class="cls-4" x1="151.15" y1="116.81" x2="151.44" y2="117.36"></line><line class="cls-4" x1="152.17" y1="117.42" x2="152.46" y2="117.96"></line><line class="cls-4" x1="151.63" y1="117.72" x2="151.93" y2="118.26"></line><line class="cls-4" x1="152.66" y1="118.3" x2="152.97" y2="118.83"></line><line class="cls-4" x1="152.13" y1="118.61" x2="152.44" y2="119.14"></line><line class="cls-4" x1="153.17" y1="119.17" x2="153.49" y2="119.69"></line><line class="cls-4" x1="152.65" y1="119.49" x2="152.97" y2="120.01"></line><line class="cls-4" x1="153.7" y1="120.02" x2="154.03" y2="120.54"></line><line class="cls-4" x1="153.19" y1="120.35" x2="153.52" y2="120.87"></line><line class="cls-4" x1="154.25" y1="120.87" x2="154.59" y2="121.38"></line><line class="cls-4" x1="153.74" y1="121.21" x2="154.09" y2="121.72"></line><line class="cls-4" x1="154.82" y1="121.7" x2="155.17" y2="122.2"></line><line class="cls-4" x1="154.31" y1="122.05" x2="154.67" y2="122.56"></line><line class="cls-4" x1="155.4" y1="122.53" x2="155.76" y2="123.02"></line><line class="cls-4" x1="154.9" y1="122.89" x2="155.26" y2="123.38"></line><line class="cls-4" x1="155.99" y1="123.34" x2="156.36" y2="123.83"></line><line class="cls-4" x1="155.5" y1="123.71" x2="155.87" y2="124.2"></line><line class="cls-4" x1="156.6" y1="124.14" x2="156.98" y2="124.62"></line><line class="cls-4" x1="156.12" y1="124.52" x2="156.5" y2="125"></line><line class="cls-4" x1="157.23" y1="124.93" x2="157.61" y2="125.41"></line><line class="cls-4" x1="156.75" y1="125.32" x2="157.14" y2="125.8"></line><line class="cls-4" x1="157.86" y1="125.72" x2="158.26" y2="126.19"></line><line class="cls-4" x1="157.39" y1="126.11" x2="157.79" y2="126.58"></line><line class="cls-4" x1="158.51" y1="126.49" x2="158.91" y2="126.95"></line><line class="cls-4" x1="158.04" y1="126.89" x2="158.45" y2="127.36"></line><line class="cls-4" x1="159.17" y1="127.25" x2="159.58" y2="127.71"></line><line class="cls-4" x1="158.71" y1="127.66" x2="159.12" y2="128.12"></line><line class="cls-4" x1="159.84" y1="128.01" x2="160.25" y2="128.46"></line><line class="cls-4" x1="159.39" y1="128.42" x2="159.8" y2="128.88"></line><line class="cls-4" x1="160.52" y1="128.75" x2="160.94" y2="129.2"></line><line class="cls-4" x1="160.07" y1="129.17" x2="160.49" y2="129.62"></line><line class="cls-4" x1="161.21" y1="129.49" x2="161.64" y2="129.93"></line><line class="cls-4" x1="160.77" y1="129.91" x2="161.2" y2="130.36"></line><line class="cls-4" x1="161.91" y1="130.22" x2="162.34" y2="130.65"></line><line class="cls-4" x1="161.47" y1="130.64" x2="161.91" y2="131.08"></line><line class="cls-4" x1="162.62" y1="130.93" x2="163.06" y2="131.37"></line><line class="cls-4" x1="162.19" y1="131.37" x2="162.63" y2="131.8"></line><line class="cls-4" x1="163.34" y1="131.64" x2="163.78" y2="132.07"></line><line class="cls-4" x1="162.91" y1="132.08" x2="163.35" y2="132.51"></line><line class="cls-4" x1="164.07" y1="132.35" x2="164.51" y2="132.77"></line><line class="cls-4" x1="163.64" y1="132.79" x2="164.09" y2="133.22"></line><line class="cls-4" x1="164.8" y1="133.04" x2="165.25" y2="133.46"></line><line class="cls-4" x1="164.38" y1="133.49" x2="164.83" y2="133.91"></line><line class="cls-4" x1="165.54" y1="133.73" x2="166" y2="134.14"></line><line class="cls-4" x1="165.13" y1="134.18" x2="165.58" y2="134.59"></line><line class="cls-4" x1="166.29" y1="134.4" x2="166.75" y2="134.81"></line><line class="cls-4" x1="165.88" y1="134.86" x2="166.34" y2="135.27"></line><line class="cls-4" x1="167.05" y1="135.07" x2="167.51" y2="135.47"></line><line class="cls-4" x1="166.64" y1="135.53" x2="167.11" y2="135.94"></line><line class="cls-4" x1="167.81" y1="135.73" x2="168.28" y2="136.13"></line><line class="cls-4" x1="167.41" y1="136.2" x2="167.88" y2="136.6"></line><line class="cls-4" x1="168.58" y1="136.39" x2="169.05" y2="136.78"></line><line class="cls-4" x1="168.19" y1="136.86" x2="168.66" y2="137.25"></line><line class="cls-4" x1="169.36" y1="137.03" x2="169.83" y2="137.42"></line><line class="cls-4" x1="168.97" y1="137.51" x2="169.45" y2="137.9"></line><line class="cls-4" x1="170.14" y1="137.67" x2="170.62" y2="138.05"></line><line class="cls-4" x1="169.76" y1="138.15" x2="170.24" y2="138.53"></line><line class="cls-4" x1="170.93" y1="138.3" x2="171.41" y2="138.68"></line><line class="cls-4" x1="170.55" y1="138.78" x2="171.04" y2="139.16"></line><line class="cls-4" x1="171.73" y1="138.92" x2="172.21" y2="139.29"></line><line class="cls-4" x1="171.35" y1="139.41" x2="171.84" y2="139.78"></line><line class="cls-4" x1="172.53" y1="139.53" x2="173.02" y2="139.9"></line><line class="cls-4" x1="172.16" y1="140.02" x2="172.66" y2="140.39"></line><line class="cls-4" x1="173.34" y1="140.14" x2="173.84" y2="140.5"></line><line class="cls-4" x1="172.98" y1="140.63" x2="173.47" y2="141"></line><line class="cls-4" x1="174.16" y1="140.73" x2="174.66" y2="141.09"></line><line class="cls-4" x1="173.8" y1="141.23" x2="174.3" y2="141.59"></line><line class="cls-4" x1="174.98" y1="141.32" x2="175.48" y2="141.66"></line><line class="cls-4" x1="174.63" y1="141.82" x2="175.14" y2="142.17"></line><line class="cls-4" x1="175.81" y1="141.89" x2="176.32" y2="142.22"></line><line class="cls-4" x1="175.47" y1="142.39" x2="175.99" y2="142.74"></line><line class="cls-4" x1="176.65" y1="142.44" x2="177.17" y2="142.75"></line><line class="cls-4" x1="176.32" y1="142.95" x2="176.86" y2="143.28"></line><line class="cls-3" x1="199.41" y1="137.73" x2="168.19" y2="137.73"></line><polygon class="cls-3" points="199.48 29.85 205.57 .92 207.5 1.37 201.61 29.06 199.48 29.85"></polygon><line class="cls-4" x1="200.29" y1="29.11" x2="200.42" y2="28.5"></line><line class="cls-4" x1="200.89" y1="29.24" x2="201.02" y2="28.63"></line><line class="cls-4" x1="200.51" y1="28.1" x2="200.64" y2="27.5"></line><line class="cls-4" x1="201.11" y1="28.23" x2="201.24" y2="27.62"></line><line class="cls-4" x1="200.72" y1="27.1" x2="200.85" y2="26.49"></line><line class="cls-4" x1="201.32" y1="27.23" x2="201.45" y2="26.62"></line><line class="cls-4" x1="200.94" y1="26.1" x2="201.07" y2="25.49"></line><line class="cls-4" x1="201.54" y1="26.22" x2="201.67" y2="25.62"></line><line class="cls-4" x1="201.15" y1="25.09" x2="201.29" y2="24.48"></line><line class="cls-4" x1="201.76" y1="25.22" x2="201.89" y2="24.61"></line><line class="cls-4" x1="201.37" y1="24.09" x2="201.5" y2="23.48"></line><line class="cls-4" x1="201.97" y1="24.21" x2="202.1" y2="23.61"></line><line class="cls-4" x1="201.59" y1="23.08" x2="201.72" y2="22.47"></line><line class="cls-4" x1="202.19" y1="23.21" x2="202.32" y2="22.6"></line><line class="cls-4" x1="201.8" y1="22.08" x2="201.93" y2="21.47"></line><line class="cls-4" x1="202.4" y1="22.21" x2="202.53" y2="21.6"></line><line class="cls-4" x1="202.02" y1="21.07" x2="202.15" y2="20.46"></line><line class="cls-4" x1="202.62" y1="21.2" x2="202.75" y2="20.59"></line><line class="cls-4" x1="202.23" y1="20.07" x2="202.36" y2="19.46"></line><line class="cls-4" x1="202.83" y1="20.2" x2="202.96" y2="19.59"></line><line class="cls-4" x1="202.45" y1="19.06" x2="202.58" y2="18.45"></line><line class="cls-4" x1="203.05" y1="19.19" x2="203.18" y2="18.58"></line><line class="cls-4" x1="202.66" y1="18.06" x2="202.79" y2="17.45"></line><line class="cls-4" x1="203.26" y1="18.19" x2="203.39" y2="17.58"></line><line class="cls-4" x1="202.88" y1="17.05" x2="203.01" y2="16.44"></line><line class="cls-4" x1="203.48" y1="17.18" x2="203.61" y2="16.57"></line><line class="cls-4" x1="203.09" y1="16.05" x2="203.22" y2="15.44"></line><line class="cls-4" x1="203.69" y1="16.18" x2="203.82" y2="15.57"></line><line class="cls-4" x1="203.31" y1="15.04" x2="203.44" y2="14.43"></line><line class="cls-4" x1="203.91" y1="15.17" x2="204.04" y2="14.56"></line><line class="cls-4" x1="203.52" y1="14.04" x2="203.65" y2="13.43"></line><line class="cls-4" x1="204.12" y1="14.17" x2="204.25" y2="13.56"></line><line class="cls-4" x1="203.74" y1="13.03" x2="203.87" y2="12.43"></line><line class="cls-4" x1="204.34" y1="13.16" x2="204.47" y2="12.55"></line><line class="cls-4" x1="203.95" y1="12.03" x2="204.08" y2="11.42"></line><line class="cls-4" x1="204.55" y1="12.16" x2="204.68" y2="11.55"></line><line class="cls-4" x1="204.17" y1="11.02" x2="204.3" y2="10.42"></line><line class="cls-4" x1="204.77" y1="11.15" x2="204.9" y2="10.54"></line><line class="cls-4" x1="204.38" y1="10.02" x2="204.52" y2="9.41"></line><line class="cls-4" x1="204.99" y1="10.15" x2="205.12" y2="9.54"></line><line class="cls-4" x1="204.6" y1="9.02" x2="204.73" y2="8.41"></line><line class="cls-4" x1="205.2" y1="9.14" x2="205.33" y2="8.53"></line><line class="cls-4" x1="204.82" y1="8.01" x2="204.95" y2="7.4"></line><line class="cls-4" x1="205.42" y1="8.14" x2="205.55" y2="7.53"></line><line class="cls-4" x1="205.03" y1="7.01" x2="205.16" y2="6.4"></line><line class="cls-4" x1="205.63" y1="7.13" x2="205.76" y2="6.53"></line><line class="cls-4" x1="205.25" y1="6" x2="205.38" y2="5.39"></line><line class="cls-4" x1="205.85" y1="6.13" x2="205.98" y2="5.52"></line><line class="cls-4" x1="205.46" y1="5" x2="205.59" y2="4.39"></line><line class="cls-4" x1="206.06" y1="5.12" x2="206.19" y2="4.52"></line><line class="cls-4" x1="205.68" y1="3.99" x2="205.81" y2="3.38"></line><line class="cls-4" x1="206.28" y1="4.12" x2="206.41" y2="3.51"></line><line class="cls-4" x1="205.89" y1="2.99" x2="206.02" y2="2.38"></line><line class="cls-4" x1="206.49" y1="3.12" x2="206.62" y2="2.51"></line><line class="cls-4" x1="206.11" y1="1.98" x2="206.24" y2="1.37"></line><line class="cls-4" x1="206.71" y1="2.11" x2="206.84" y2="1.5"></line><path class="cls-3" d="m183.8,34.43c9.27-.05,19.63-2.66,27.35-8.15,9.12-6.49,12.9-9.81,15.71-18.73l-1.94-.96c-2.15,9.49-9.58,14.59-14.39,17.87-7.8,5.31-17.51,8.1-26.74,8.16-9.23-.06-18.93-2.85-26.74-8.16-4.81-3.27-12.24-8.38-14.39-17.87l-1.94.96c2.82,8.92,6.6,12.24,15.71,18.73,7.72,5.49,18.08,8.1,27.35,8.15Z"></path><line class="cls-4" x1="226.01" y1="7.61" x2="225.84" y2="8.21"></line><line class="cls-4" x1="225.42" y1="7.46" x2="225.25" y2="8.04"></line><path class="cls-4" d="m225.74,8.6c-.06.2-.11.4-.19.59"></path><path class="cls-4" d="m225.15,8.42c-.05.19-.11.39-.18.58"></path><line class="cls-4" x1="225.41" y1="9.57" x2="225.2" y2="10.16"></line><line class="cls-4" x1="224.83" y1="9.37" x2="224.63" y2="9.94"></line><line class="cls-4" x1="225.06" y1="10.54" x2="224.82" y2="11.11"></line><line class="cls-4" x1="224.49" y1="10.31" x2="224.25" y2="10.86"></line><path class="cls-4" d="m224.65,11.48c-.09.19-.16.38-.26.57"></path><path class="cls-4" d="m224.09,11.23c-.08.18-.15.37-.25.55"></path><line class="cls-4" x1="224.21" y1="12.4" x2="223.93" y2="12.96"></line><line class="cls-4" x1="223.66" y1="12.13" x2="223.39" y2="12.66"></line><line class="cls-4" x1="223.74" y1="13.31" x2="223.42" y2="13.85"></line><line class="cls-4" x1="223.2" y1="13.01" x2="222.89" y2="13.53"></line><path class="cls-4" d="m223.21,14.19c-.11.18-.21.36-.33.53"></path><path class="cls-4" d="m222.69,13.87c-.11.17-.2.35-.32.51"></path><line class="cls-4" x1="222.65" y1="15.05" x2="222.3" y2="15.56"></line><line class="cls-4" x1="222.14" y1="14.71" x2="221.8" y2="15.21"></line><line class="cls-4" x1="222.06" y1="15.89" x2="221.68" y2="16.38"></line><line class="cls-4" x1="221.57" y1="15.53" x2="221.2" y2="16"></line><path class="cls-4" d="m221.43,16.7c-.13.16-.25.33-.39.48"></path><path class="cls-4" d="m220.95,16.32c-.13.16-.25.32-.38.47"></path><line class="cls-4" x1="220.78" y1="17.49" x2="220.37" y2="17.95"></line><line class="cls-4" x1="220.31" y1="17.08" x2="219.91" y2="17.54"></line><line class="cls-4" x1="220.1" y1="18.25" x2="219.67" y2="18.7"></line><line class="cls-4" x1="219.65" y1="17.83" x2="219.22" y2="18.27"></line><path class="cls-4" d="m219.39,18.99c-.14.15-.29.3-.44.44"></path><path class="cls-4" d="m218.95,18.55c-.14.15-.28.29-.43.43"></path><line class="cls-4" x1="218.65" y1="19.7" x2="218.2" y2="20.13"></line><line class="cls-4" x1="218.23" y1="19.25" x2="217.79" y2="19.67"></line><line class="cls-4" x1="217.91" y1="20.4" x2="217.44" y2="20.8"></line><line class="cls-4" x1="217.5" y1="19.94" x2="217.04" y2="20.34"></line><path class="cls-4" d="m217.14,21.07c-.15.14-.31.27-.47.4"></path><path class="cls-4" d="m216.74,20.6c-.15.14-.31.26-.47.39"></path><line class="cls-4" x1="216.35" y1="21.72" x2="215.88" y2="22.11"></line><line class="cls-4" x1="215.97" y1="21.24" x2="215.49" y2="21.63"></line><line class="cls-4" x1="215.56" y1="22.36" x2="215.07" y2="22.73"></line><line class="cls-4" x1="215.18" y1="21.87" x2="214.7" y2="22.24"></line><line class="cls-4" x1="214.75" y1="22.98" x2="214.26" y2="23.34"></line><line class="cls-4" x1="214.38" y1="22.49" x2="213.89" y2="22.85"></line><line class="cls-4" x1="213.93" y1="23.58" x2="213.44" y2="23.94"></line><line class="cls-4" x1="213.57" y1="23.09" x2="213.08" y2="23.45"></line><line class="cls-4" x1="213.11" y1="24.18" x2="212.61" y2="24.53"></line><line class="cls-4" x1="212.75" y1="23.68" x2="212.25" y2="24.03"></line><line class="cls-4" x1="212.28" y1="24.76" x2="211.77" y2="25.11"></line><line class="cls-4" x1="211.93" y1="24.26" x2="211.42" y2="24.6"></line><line class="cls-4" x1="211.44" y1="25.33" x2="210.93" y2="25.68"></line><line class="cls-4" x1="211.09" y1="24.83" x2="210.59" y2="25.17"></line><line class="cls-4" x1="210.6" y1="25.9" x2="210.08" y2="26.23"></line><line class="cls-4" x1="210.26" y1="25.39" x2="209.74" y2="25.72"></line><path class="cls-4" d="m209.74,26.45c-.17.11-.34.23-.52.33"></path><path class="cls-4" d="m209.41,25.93c-.17.11-.34.22-.52.32"></path><line class="cls-4" x1="208.87" y1="26.98" x2="208.33" y2="27.3"></line><line class="cls-4" x1="208.55" y1="26.46" x2="208.03" y2="26.76"></line><path class="cls-4" d="m207.99,27.5c-.18.11-.36.2-.54.3"></path><path class="cls-4" d="m207.69,26.97c-.17.11-.36.2-.53.29"></path><line class="cls-4" x1="207.09" y1="27.99" x2="206.55" y2="28.28"></line><line class="cls-4" x1="206.8" y1="27.45" x2="206.27" y2="27.74"></line><line class="cls-4" x1="206.19" y1="28.47" x2="205.64" y2="28.74"></line><line class="cls-4" x1="205.91" y1="27.92" x2="205.37" y2="28.19"></line><line class="cls-4" x1="205.28" y1="28.91" x2="204.72" y2="29.19"></line><line class="cls-4" x1="205.01" y1="28.36" x2="204.46" y2="28.63"></line><line class="cls-4" x1="204.36" y1="29.35" x2="203.79" y2="29.6"></line><line class="cls-4" x1="204.1" y1="28.79" x2="203.54" y2="29.04"></line><path class="cls-4" d="m203.42,29.76c-.19.08-.38.17-.57.24"></path><path class="cls-4" d="m203.18,29.2c-.19.08-.37.17-.56.24"></path><line class="cls-4" x1="202.48" y1="30.15" x2="201.91" y2="30.38"></line><line class="cls-4" x1="202.25" y1="29.59" x2="201.69" y2="29.81"></line><path class="cls-4" d="m201.54,30.53c-.19.08-.39.14-.58.21"></path><path class="cls-4" d="m201.32,29.96c-.19.08-.38.14-.57.21"></path><line class="cls-4" x1="200.58" y1="30.88" x2="200" y2="31.09"></line><line class="cls-4" x1="200.37" y1="30.31" x2="199.8" y2="30.51"></line><line class="cls-4" x1="199.62" y1="31.22" x2="199.03" y2="31.41"></line><line class="cls-4" x1="199.42" y1="30.64" x2="198.84" y2="30.83"></line><line class="cls-4" x1="198.65" y1="31.53" x2="198.06" y2="31.72"></line><line class="cls-4" x1="198.47" y1="30.95" x2="197.88" y2="31.13"></line><line class="cls-4" x1="197.68" y1="31.83" x2="197.08" y2="32"></line><line class="cls-4" x1="197.5" y1="31.24" x2="196.92" y2="31.41"></line><path class="cls-4" d="m196.69,32.11c-.2.05-.4.12-.6.16"></path><path class="cls-4" d="m196.53,31.52c-.2.05-.39.11-.59.16"></path><line class="cls-4" x1="195.71" y1="32.36" x2="195.11" y2="32.51"></line><line class="cls-4" x1="195.56" y1="31.77" x2="194.97" y2="31.91"></line><path class="cls-4" d="m194.72,32.6c-.2.05-.4.09-.6.13"></path><path class="cls-4" d="m194.58,32c-.2.05-.4.09-.6.13"></path><line class="cls-4" x1="193.72" y1="32.82" x2="193.12" y2="32.94"></line><line class="cls-4" x1="193.6" y1="32.21" x2="193" y2="32.34"></line><line class="cls-4" x1="192.72" y1="33.02" x2="192.11" y2="33.12"></line><line class="cls-4" x1="192.61" y1="32.42" x2="192.01" y2="32.52"></line><line class="cls-4" x1="191.72" y1="33.19" x2="191.11" y2="33.29"></line><line class="cls-4" x1="191.62" y1="32.58" x2="191.02" y2="32.68"></line><line class="cls-4" x1="190.71" y1="33.35" x2="190.1" y2="33.43"></line><line class="cls-4" x1="190.62" y1="32.74" x2="190.02" y2="32.82"></line><line class="cls-4" x1="189.7" y1="33.48" x2="189.09" y2="33.56"></line><line class="cls-4" x1="189.63" y1="32.87" x2="189.02" y2="32.95"></line><line class="cls-4" x1="188.69" y1="33.6" x2="188.07" y2="33.65"></line><line class="cls-4" x1="188.63" y1="32.99" x2="188.02" y2="33.04"></line><path class="cls-4" d="m187.67,33.69c-.2.02-.41.04-.62.05"></path><path class="cls-4" d="m187.62,33.08c-.2.02-.41.03-.61.04"></path><line class="cls-4" x1="186.66" y1="33.76" x2="186.04" y2="33.79"></line><line class="cls-4" x1="186.62" y1="33.15" x2="186.01" y2="33.18"></line><line class="cls-4" x1="185.64" y1="33.82" x2="185.02" y2="33.83"></line><line class="cls-4" x1="185.62" y1="33.2" x2="185.01" y2="33.22"></line><line class="cls-4" x1="184.62" y1="33.84" x2="184" y2="33.85"></line><line class="cls-4" x1="184.61" y1="33.22" x2="184" y2="33.24"></line><line class="cls-4" x1="183.6" y1="33.85" x2="182.98" y2="33.84"></line><line class="cls-4" x1="183.6" y1="33.23" x2="182.99" y2="33.22"></line><line class="cls-4" x1="182.58" y1="33.83" x2="181.96" y2="33.81"></line><path class="cls-4" d="m182.6,33.21c-.2,0-.41,0-.61-.02"></path><line class="cls-4" x1="181.56" y1="33.79" x2="180.95" y2="33.75"></line><line class="cls-4" x1="181.59" y1="33.18" x2="180.98" y2="33.14"></line><path class="cls-4" d="m180.55,33.73c-.21,0-.41-.03-.62-.05"></path><path class="cls-4" d="m180.59,33.12c-.2,0-.41-.03-.61-.05"></path><line class="cls-4" x1="179.53" y1="33.64" x2="178.92" y2="33.59"></line><line class="cls-4" x1="179.59" y1="33.03" x2="178.98" y2="32.98"></line><line class="cls-4" x1="178.52" y1="33.55" x2="177.9" y2="33.47"></line><line class="cls-4" x1="178.58" y1="32.94" x2="177.98" y2="32.86"></line><line class="cls-4" x1="177.51" y1="33.42" x2="176.89" y2="33.34"></line><line class="cls-4" x1="177.59" y1="32.81" x2="176.98" y2="32.73"></line><line class="cls-4" x1="176.5" y1="33.28" x2="175.89" y2="33.18"></line><line class="cls-4" x1="176.59" y1="32.67" x2="175.99" y2="32.57"></line><line class="cls-4" x1="175.49" y1="33.11" x2="174.88" y2="33"></line><line class="cls-4" x1="175.6" y1="32.5" x2="175" y2="32.4"></line><line class="cls-4" x1="174.49" y1="32.92" x2="173.88" y2="32.8"></line><line class="cls-4" x1="174.61" y1="32.32" x2="174.01" y2="32.2"></line><path class="cls-4" d="m173.49,32.72c-.2-.04-.4-.08-.6-.13"></path><path class="cls-4" d="m173.62,32.12c-.2-.04-.4-.08-.6-.13"></path><line class="cls-4" x1="172.5" y1="32.49" x2="171.9" y2="32.35"></line><line class="cls-4" x1="172.64" y1="31.9" x2="172.05" y2="31.75"></line><line class="cls-4" x1="171.51" y1="32.26" x2="170.91" y2="32.09"></line><line class="cls-4" x1="171.66" y1="31.66" x2="171.07" y2="31.5"></line><line class="cls-4" x1="170.52" y1="31.98" x2="169.93" y2="31.82"></line><line class="cls-4" x1="170.69" y1="31.39" x2="170.1" y2="31.23"></line><line class="cls-4" x1="169.54" y1="31.71" x2="168.96" y2="31.52"></line><line class="cls-4" x1="169.72" y1="31.12" x2="169.14" y2="30.93"></line><line class="cls-4" x1="168.57" y1="31.4" x2="167.98" y2="31.21"></line><line class="cls-4" x1="168.76" y1="30.81" x2="168.18" y2="30.63"></line><line class="cls-4" x1="167.61" y1="31.08" x2="167.02" y2="30.87"></line><line class="cls-4" x1="167.81" y1="30.5" x2="167.23" y2="30.29"></line><path class="cls-4" d="m166.65,30.74c-.19-.07-.39-.13-.58-.21"></path><path class="cls-4" d="m166.86,30.16c-.19-.07-.38-.13-.57-.21"></path><line class="cls-4" x1="165.69" y1="30.37" x2="165.12" y2="30.15"></line><line class="cls-4" x1="165.92" y1="29.8" x2="165.35" y2="29.58"></line><path class="cls-4" d="m164.75,30c-.19-.07-.38-.16-.57-.24"></path><path class="cls-4" d="m164.98,29.43c-.19-.07-.37-.16-.56-.24"></path><line class="cls-4" x1="163.81" y1="29.59" x2="163.25" y2="29.34"></line><line class="cls-4" x1="164.06" y1="29.03" x2="163.5" y2="28.78"></line><line class="cls-4" x1="162.88" y1="29.18" x2="162.33" y2="28.91"></line><line class="cls-4" x1="163.14" y1="28.62" x2="162.59" y2="28.36"></line><line class="cls-4" x1="161.96" y1="28.73" x2="161.41" y2="28.46"></line><line class="cls-4" x1="162.24" y1="28.18" x2="161.69" y2="27.91"></line><line class="cls-4" x1="161.05" y1="28.28" x2="160.51" y2="27.98"></line><line class="cls-4" x1="161.34" y1="27.73" x2="160.8" y2="27.44"></line><path class="cls-4" d="m160.15,27.8c-.18-.1-.37-.19-.54-.3"></path><path class="cls-4" d="m160.45,27.26c-.18-.1-.36-.19-.53-.29"></path><line class="cls-4" x1="159.27" y1="27.3" x2="158.73" y2="26.98"></line><line class="cls-4" x1="159.57" y1="26.76" x2="159.05" y2="26.45"></line><path class="cls-4" d="m158.39,26.78c-.18-.1-.35-.22-.52-.33"></path><path class="cls-4" d="m158.71,26.25c-.18-.1-.35-.21-.52-.32"></path><line class="cls-4" x1="157.52" y1="26.23" x2="157" y2="25.9"></line><line class="cls-4" x1="157.86" y1="25.72" x2="157.34" y2="25.39"></line><line class="cls-4" x1="156.67" y1="25.68" x2="156.16" y2="25.33"></line><line class="cls-4" x1="157.01" y1="25.17" x2="156.5" y2="24.83"></line><line class="cls-4" x1="155.83" y1="25.11" x2="155.32" y2="24.76"></line><line class="cls-4" x1="156.18" y1="24.6" x2="155.67" y2="24.26"></line><line class="cls-4" x1="154.99" y1="24.53" x2="154.49" y2="24.18"></line><line class="cls-4" x1="155.35" y1="24.03" x2="154.85" y2="23.68"></line><line class="cls-4" x1="154.16" y1="23.94" x2="153.67" y2="23.58"></line><line class="cls-4" x1="154.52" y1="23.45" x2="154.03" y2="23.09"></line><line class="cls-4" x1="153.34" y1="23.34" x2="152.85" y2="22.98"></line><line class="cls-4" x1="153.71" y1="22.85" x2="153.22" y2="22.49"></line><line class="cls-4" x1="152.53" y1="22.73" x2="152.04" y2="22.36"></line><line class="cls-4" x1="152.9" y1="22.24" x2="152.42" y2="21.87"></line><line class="cls-4" x1="151.72" y1="22.11" x2="151.24" y2="21.72"></line><line class="cls-4" x1="152.11" y1="21.63" x2="151.63" y2="21.24"></line><path class="cls-4" d="m150.93,21.46c-.16-.13-.32-.26-.47-.4"></path><path class="cls-4" d="m151.33,20.99c-.16-.13-.32-.26-.47-.39"></path><line class="cls-4" x1="150.16" y1="20.8" x2="149.69" y2="20.4"></line><line class="cls-4" x1="150.56" y1="20.34" x2="150.1" y2="19.94"></line><line class="cls-4" x1="149.39" y1="20.13" x2="148.94" y2="19.7"></line><line class="cls-4" x1="149.81" y1="19.67" x2="149.37" y2="19.25"></line><path class="cls-4" d="m148.65,19.42c-.15-.14-.3-.29-.44-.44"></path><path class="cls-4" d="m149.08,18.98c-.15-.14-.29-.28-.43-.43"></path><line class="cls-4" x1="147.93" y1="18.7" x2="147.5" y2="18.25"></line><line class="cls-4" x1="148.37" y1="18.27" x2="147.95" y2="17.83"></line><line class="cls-4" x1="147.23" y1="17.95" x2="146.82" y2="17.49"></line><line class="cls-4" x1="147.69" y1="17.54" x2="147.29" y2="17.08"></line><path class="cls-4" d="m146.56,17.18c-.14-.15-.26-.32-.39-.48"></path><path class="cls-4" d="m147.03,16.79c-.14-.15-.26-.31-.38-.47"></path><line class="cls-4" x1="145.92" y1="16.38" x2="145.54" y2="15.89"></line><line class="cls-4" x1="146.4" y1="16" x2="146.03" y2="15.53"></line><line class="cls-4" x1="145.3" y1="15.56" x2="144.95" y2="15.05"></line><line class="cls-4" x1="145.8" y1="15.21" x2="145.46" y2="14.71"></line><path class="cls-4" d="m144.72,14.72c-.12-.17-.22-.35-.33-.53"></path><path class="cls-4" d="m145.23,14.38c-.12-.16-.21-.34-.32-.51"></path><line class="cls-4" x1="144.18" y1="13.85" x2="143.86" y2="13.31"></line><line class="cls-4" x1="144.71" y1="13.53" x2="144.4" y2="13.01"></line><line class="cls-4" x1="143.67" y1="12.96" x2="143.39" y2="12.4"></line><line class="cls-4" x1="144.21" y1="12.66" x2="143.94" y2="12.13"></line><path class="cls-4" d="m143.2,12.04c-.1-.18-.17-.38-.26-.57"></path><path class="cls-4" d="m143.75,11.78c-.1-.18-.17-.37-.25-.55"></path><line class="cls-4" x1="142.78" y1="11.11" x2="142.53" y2="10.54"></line><line class="cls-4" x1="143.35" y1="10.86" x2="143.1" y2="10.31"></line><line class="cls-4" x1="142.39" y1="10.16" x2="142.19" y2="9.57"></line><line class="cls-4" x1="142.97" y1="9.94" x2="142.76" y2="9.37"></line><path class="cls-4" d="m142.05,9.19c-.07-.19-.13-.39-.19-.59"></path><path class="cls-4" d="m142.63,9c-.07-.19-.13-.38-.18-.58"></path><line class="cls-4" x1="141.75" y1="8.21" x2="141.59" y2="7.61"></line><line class="cls-4" x1="142.34" y1="8.04" x2="142.18" y2="7.46"></line><path class="cls-3" d="m217.85,36.85s1.94-1.93,4.55-2.73c3.01-.92,6.74.66,10.52,2.3l9.75-17c-12.97-10.98-15.61-11.78-15.61-11.78"></path><path class="cls-3" d="m149.87,37.1s-2.01-2.2-4.63-3c-3.01-.92-6.74.66-10.52,2.3l-9.75-17c12.97-10.98,15.61-11.78,15.61-11.78"></path><g id="BoS_Sleeve-5"><path class="cls-1" d="m124.98,19.36l9.75,17.05c-.2.1-1.33.77-1.53.87l-9.85-16.74c.59-.36,1.09-.85,1.63-1.17Z"></path><line class="cls-2" x1="124.46" y1="20.05" x2="124.75" y2="20.56"></line><line class="cls-2" x1="123.95" y1="20.35" x2="124.24" y2="20.86"></line><line class="cls-2" x1="124.95" y1="20.89" x2="125.24" y2="21.4"></line><line class="cls-2" x1="124.43" y1="21.19" x2="124.73" y2="21.7"></line><line class="cls-2" x1="125.43" y1="21.73" x2="125.73" y2="22.24"></line><line class="cls-2" x1="124.92" y1="22.03" x2="125.22" y2="22.53"></line><line class="cls-2" x1="125.92" y1="22.57" x2="126.22" y2="23.07"></line><line class="cls-2" x1="125.41" y1="22.86" x2="125.71" y2="23.37"></line><line class="cls-2" x1="126.41" y1="23.4" x2="126.71" y2="23.91"></line><line class="cls-2" x1="125.9" y1="23.7" x2="126.2" y2="24.21"></line><line class="cls-2" x1="126.9" y1="24.24" x2="127.2" y2="24.75"></line><line class="cls-2" x1="126.39" y1="24.54" x2="126.68" y2="25.05"></line><line class="cls-2" x1="127.39" y1="25.08" x2="127.68" y2="25.59"></line><line class="cls-2" x1="126.88" y1="25.38" x2="127.17" y2="25.89"></line><line class="cls-2" x1="127.88" y1="25.92" x2="128.17" y2="26.43"></line><line class="cls-2" x1="127.36" y1="26.22" x2="127.66" y2="26.72"></line><line class="cls-2" x1="128.37" y1="26.76" x2="128.66" y2="27.26"></line><line class="cls-2" x1="127.85" y1="27.05" x2="128.15" y2="27.56"></line><line class="cls-2" x1="128.85" y1="27.59" x2="129.15" y2="28.1"></line><line class="cls-2" x1="128.34" y1="27.89" x2="128.64" y2="28.4"></line><line class="cls-2" x1="129.34" y1="28.43" x2="129.64" y2="28.94"></line><line class="cls-2" x1="128.83" y1="28.73" x2="129.13" y2="29.24"></line><line class="cls-2" x1="129.83" y1="29.27" x2="130.13" y2="29.78"></line><line class="cls-2" x1="129.32" y1="29.57" x2="129.61" y2="30.08"></line><line class="cls-2" x1="130.32" y1="30.11" x2="130.62" y2="30.62"></line><line class="cls-2" x1="129.81" y1="30.41" x2="130.1" y2="30.91"></line><line class="cls-2" x1="130.81" y1="30.95" x2="131.1" y2="31.45"></line><line class="cls-2" x1="130.3" y1="31.24" x2="130.59" y2="31.75"></line><line class="cls-2" x1="131.3" y1="31.78" x2="131.59" y2="32.29"></line><line class="cls-2" x1="130.78" y1="32.08" x2="131.08" y2="32.59"></line><line class="cls-2" x1="131.78" y1="32.62" x2="132.08" y2="33.13"></line><line class="cls-2" x1="131.27" y1="32.92" x2="131.57" y2="33.43"></line><line class="cls-2" x1="132.27" y1="33.46" x2="132.57" y2="33.97"></line><line class="cls-2" x1="131.76" y1="33.76" x2="132.06" y2="34.27"></line><line class="cls-2" x1="132.76" y1="34.3" x2="133.06" y2="34.81"></line><line class="cls-2" x1="132.25" y1="34.6" x2="132.54" y2="35.1"></line><line class="cls-2" x1="133.25" y1="35.14" x2="133.55" y2="35.64"></line><line class="cls-2" x1="132.74" y1="35.43" x2="133.03" y2="35.94"></line><line class="cls-2" x1="133.74" y1="35.97" x2="134.03" y2="36.48"></line><line class="cls-2" x1="133.23" y1="36.27" x2="133.52" y2="36.78"></line></g><g id="BoS_Sleeve-6"><path class="cls-1" d="m242.65,19.41l-9.75,17.05c.2.1,1.33.77,1.53.87l9.85-16.74c-.59-.36-1.09-.85-1.63-1.17Z"></path><line class="cls-2" x1="243.68" y1="20.4" x2="243.39" y2="20.91"></line><line class="cls-2" x1="243.17" y1="20.1" x2="242.87" y2="20.61"></line><line class="cls-2" x1="243.19" y1="21.24" x2="242.9" y2="21.75"></line><line class="cls-2" x1="242.68" y1="20.94" x2="242.38" y2="21.45"></line><line class="cls-2" x1="242.7" y1="22.08" x2="242.41" y2="22.59"></line><line class="cls-2" x1="242.19" y1="21.78" x2="241.9" y2="22.29"></line><line class="cls-2" x1="242.22" y1="22.92" x2="241.92" y2="23.42"></line><line class="cls-2" x1="241.7" y1="22.62" x2="241.41" y2="23.12"></line><line class="cls-2" x1="241.73" y1="23.75" x2="241.43" y2="24.26"></line><line class="cls-2" x1="241.22" y1="23.45" x2="240.92" y2="23.96"></line><line class="cls-2" x1="241.24" y1="24.59" x2="240.94" y2="25.1"></line><line class="cls-2" x1="240.73" y1="24.29" x2="240.43" y2="24.8"></line><line class="cls-2" x1="240.75" y1="25.43" x2="240.45" y2="25.94"></line><line class="cls-2" x1="240.24" y1="25.13" x2="239.94" y2="25.64"></line><line class="cls-2" x1="240.26" y1="26.27" x2="239.97" y2="26.78"></line><line class="cls-2" x1="239.75" y1="25.97" x2="239.45" y2="26.48"></line><line class="cls-2" x1="239.77" y1="27.11" x2="239.48" y2="27.61"></line><line class="cls-2" x1="239.26" y1="26.81" x2="238.97" y2="27.31"></line><line class="cls-2" x1="239.29" y1="27.94" x2="238.99" y2="28.45"></line><line class="cls-2" x1="238.77" y1="27.65" x2="238.48" y2="28.15"></line><line class="cls-2" x1="238.8" y1="28.78" x2="238.5" y2="29.29"></line><line class="cls-2" x1="238.28" y1="28.48" x2="237.99" y2="28.99"></line><line class="cls-2" x1="238.31" y1="29.62" x2="238.01" y2="30.13"></line><line class="cls-2" x1="237.8" y1="29.32" x2="237.5" y2="29.83"></line><line class="cls-2" x1="237.82" y1="30.46" x2="237.52" y2="30.97"></line><line class="cls-2" x1="237.31" y1="30.16" x2="237.01" y2="30.67"></line><line class="cls-2" x1="237.33" y1="31.3" x2="237.04" y2="31.8"></line><line class="cls-2" x1="236.82" y1="31" x2="236.52" y2="31.51"></line><line class="cls-2" x1="236.84" y1="32.13" x2="236.55" y2="32.64"></line><line class="cls-2" x1="236.33" y1="31.84" x2="236.03" y2="32.34"></line><line class="cls-2" x1="236.35" y1="32.97" x2="236.06" y2="33.48"></line><line class="cls-2" x1="235.84" y1="32.67" x2="235.55" y2="33.18"></line><line class="cls-2" x1="235.87" y1="33.81" x2="235.57" y2="34.32"></line><line class="cls-2" x1="235.35" y1="33.51" x2="235.06" y2="34.02"></line><line class="cls-2" x1="235.38" y1="34.65" x2="235.08" y2="35.16"></line><line class="cls-2" x1="234.87" y1="34.35" x2="234.57" y2="34.86"></line><line class="cls-2" x1="234.89" y1="35.49" x2="234.59" y2="35.99"></line><line class="cls-2" x1="234.38" y1="35.19" x2="234.08" y2="35.7"></line><line class="cls-2" x1="234.4" y1="36.32" x2="234.11" y2="36.83"></line><line class="cls-2" x1="233.89" y1="36.03" x2="233.59" y2="36.53"></line></g><polygon class="cls-3" points="168.81 30.15 162.72 1.22 160.8 1.67 166.69 29.36 168.81 30.15"></polygon><line class="cls-4" x1="167.4" y1="29.54" x2="167.27" y2="28.93"></line><line class="cls-4" x1="168" y1="29.41" x2="167.87" y2="28.8"></line><line class="cls-4" x1="167.18" y1="28.54" x2="167.05" y2="27.93"></line><line class="cls-4" x1="167.79" y1="28.41" x2="167.65" y2="27.8"></line><line class="cls-4" x1="166.97" y1="27.53" x2="166.84" y2="26.92"></line><line class="cls-4" x1="167.57" y1="27.4" x2="167.44" y2="26.79"></line><line class="cls-4" x1="166.75" y1="26.53" x2="166.62" y2="25.92"></line><line class="cls-4" x1="167.35" y1="26.4" x2="167.22" y2="25.79"></line><line class="cls-4" x1="166.54" y1="25.52" x2="166.41" y2="24.91"></line><line class="cls-4" x1="167.14" y1="25.39" x2="167.01" y2="24.78"></line><line class="cls-4" x1="166.32" y1="24.52" x2="166.19" y2="23.91"></line><line class="cls-4" x1="166.92" y1="24.39" x2="166.79" y2="23.78"></line><line class="cls-4" x1="166.11" y1="23.51" x2="165.98" y2="22.9"></line><line class="cls-4" x1="166.71" y1="23.38" x2="166.58" y2="22.77"></line><line class="cls-4" x1="165.89" y1="22.51" x2="165.76" y2="21.9"></line><line class="cls-4" x1="166.49" y1="22.38" x2="166.36" y2="21.77"></line><line class="cls-4" x1="165.68" y1="21.5" x2="165.55" y2="20.89"></line><line class="cls-4" x1="166.28" y1="21.37" x2="166.15" y2="20.76"></line><line class="cls-4" x1="165.46" y1="20.5" x2="165.33" y2="19.89"></line><line class="cls-4" x1="166.06" y1="20.37" x2="165.93" y2="19.76"></line><line class="cls-4" x1="165.25" y1="19.49" x2="165.12" y2="18.88"></line><line class="cls-4" x1="165.85" y1="19.36" x2="165.72" y2="18.76"></line><line class="cls-4" x1="165.03" y1="18.49" x2="164.9" y2="17.88"></line><line class="cls-4" x1="165.63" y1="18.36" x2="165.5" y2="17.75"></line><line class="cls-4" x1="164.82" y1="17.48" x2="164.69" y2="16.87"></line><line class="cls-4" x1="165.42" y1="17.35" x2="165.29" y2="16.75"></line><line class="cls-4" x1="164.6" y1="16.48" x2="164.47" y2="15.87"></line><line class="cls-4" x1="165.2" y1="16.35" x2="165.07" y2="15.74"></line><line class="cls-4" x1="164.39" y1="15.47" x2="164.25" y2="14.87"></line><line class="cls-4" x1="164.99" y1="15.35" x2="164.86" y2="14.74"></line><line class="cls-4" x1="164.17" y1="14.47" x2="164.04" y2="13.86"></line><line class="cls-4" x1="164.77" y1="14.34" x2="164.64" y2="13.73"></line><line class="cls-4" x1="163.95" y1="13.46" x2="163.82" y2="12.86"></line><line class="cls-4" x1="164.55" y1="13.34" x2="164.42" y2="12.73"></line><line class="cls-4" x1="163.74" y1="12.46" x2="163.61" y2="11.85"></line><line class="cls-4" x1="164.34" y1="12.33" x2="164.21" y2="11.72"></line><line class="cls-4" x1="163.52" y1="11.46" x2="163.39" y2="10.85"></line><line class="cls-4" x1="164.12" y1="11.33" x2="163.99" y2="10.72"></line><line class="cls-4" x1="163.31" y1="10.45" x2="163.18" y2="9.84"></line><line class="cls-4" x1="163.91" y1="10.32" x2="163.78" y2="9.71"></line><line class="cls-4" x1="163.09" y1="9.45" x2="162.96" y2="8.84"></line><line class="cls-4" x1="163.69" y1="9.32" x2="163.56" y2="8.71"></line><line class="cls-4" x1="162.88" y1="8.44" x2="162.75" y2="7.83"></line><line class="cls-4" x1="163.48" y1="8.31" x2="163.35" y2="7.7"></line><line class="cls-4" x1="162.66" y1="7.44" x2="162.53" y2="6.83"></line><line class="cls-4" x1="163.26" y1="7.31" x2="163.13" y2="6.7"></line><line class="cls-4" x1="162.45" y1="6.43" x2="162.32" y2="5.82"></line><line class="cls-4" x1="163.05" y1="6.3" x2="162.92" y2="5.69"></line><line class="cls-4" x1="162.23" y1="5.43" x2="162.1" y2="4.82"></line><line class="cls-4" x1="162.83" y1="5.3" x2="162.7" y2="4.69"></line><line class="cls-4" x1="162.02" y1="4.42" x2="161.89" y2="3.81"></line><line class="cls-4" x1="162.62" y1="4.29" x2="162.49" y2="3.68"></line><line class="cls-4" x1="161.8" y1="3.42" x2="161.67" y2="2.81"></line><line class="cls-4" x1="162.4" y1="3.29" x2="162.27" y2="2.68"></line><line class="cls-4" x1="161.59" y1="2.41" x2="161.46" y2="1.8"></line><line class="cls-4" x1="162.19" y1="2.28" x2="162.06" y2="1.68"></line></g><g id="Front_Outlines"><g id="front_visible_outlines"><g id="_Group_"><line class="cls-4" x1="52.67" y1="142.11" x2="52.67" y2="141.5"></line><line class="cls-4" x1="53.28" y1="142.15" x2="53.29" y2="141.52"></line><line class="cls-4" x1="52.68" y1="141.1" x2="52.68" y2="140.49"></line><line class="cls-4" x1="53.29" y1="141.12" x2="53.3" y2="140.5"></line><line class="cls-4" x1="52.69" y1="140.1" x2="52.7" y2="139.49"></line><line class="cls-4" x1="53.3" y1="140.09" x2="53.31" y2="139.47"></line><path class="cls-4" d="m52.7,139.09c.01-.2-.02-.4-.04-.61"></path><path class="cls-4" d="m53.31,139.06c.01-.21-.02-.41-.04-.62"></path><line class="cls-4" x1="52.61" y1="138.09" x2="52.54" y2="137.49"></line><line class="cls-4" x1="53.22" y1="138.04" x2="53.15" y2="137.42"></line><line class="cls-4" x1="52.5" y1="137.09" x2="52.43" y2="136.49"></line><line class="cls-4" x1="53.11" y1="137.02" x2="53.04" y2="136.4"></line><path class="cls-4" d="m52.39,136.09c-.03-.2-.03-.41-.08-.6"></path><path class="cls-4" d="m52.99,136c-.03-.21-.03-.42-.08-.62"></path><line class="cls-4" x1="52.21" y1="135.11" x2="52.07" y2="134.52"></line><line class="cls-4" x1="52.81" y1="134.99" x2="52.67" y2="134.38"></line><line class="cls-4" x1="51.98" y1="134.13" x2="51.83" y2="133.54"></line><line class="cls-4" x1="52.57" y1="133.99" x2="52.43" y2="133.38"></line><line class="cls-4" x1="51.74" y1="133.15" x2="51.6" y2="132.56"></line><line class="cls-4" x1="52.33" y1="132.99" x2="52.18" y2="132.38"></line><line class="cls-4" x1="51.46" y1="132.19" x2="51.25" y2="131.62"></line><line class="cls-4" x1="52.04" y1="132" x2="51.82" y2="131.42"></line><line class="cls-4" x1="51.11" y1="131.25" x2="50.89" y2="130.68"></line><line class="cls-4" x1="51.68" y1="131.04" x2="51.46" y2="130.46"></line><line class="cls-4" x1="50.75" y1="130.31" x2="50.54" y2="129.74"></line><line class="cls-4" x1="51.32" y1="130.08" x2="51.1" y2="129.49"></line><line class="cls-4" x1="50.36" y1="129.39" x2="50.08" y2="128.85"></line><line class="cls-4" x1="50.92" y1="129.13" x2="50.63" y2="128.58"></line><line class="cls-4" x1="49.9" y1="128.5" x2="49.62" y2="127.96"></line><line class="cls-4" x1="50.44" y1="128.22" x2="50.16" y2="127.66"></line><line class="cls-4" x1="49.44" y1="127.61" x2="49.16" y2="127.07"></line><line class="cls-4" x1="49.97" y1="127.31" x2="49.68" y2="126.75"></line><line class="cls-4" x1="48.93" y1="126.74" x2="48.59" y2="126.23"></line><line class="cls-4" x1="49.46" y1="126.42" x2="49.11" y2="125.9"></line><line class="cls-4" x1="48.37" y1="125.9" x2="48.03" y2="125.4"></line><line class="cls-4" x1="48.88" y1="125.56" x2="48.54" y2="125.04"></line><path class="cls-4" d="m47.81,125.07c-.12-.17-.22-.34-.35-.5"></path><path class="cls-4" d="m48.31,124.71c-.12-.17-.22-.35-.36-.51"></path><line class="cls-4" x1="47.21" y1="124.27" x2="46.82" y2="123.8"></line><line class="cls-4" x1="47.7" y1="123.89" x2="47.3" y2="123.41"></line><line class="cls-4" x1="46.57" y1="123.49" x2="46.18" y2="123.03"></line><line class="cls-4" x1="47.04" y1="123.1" x2="46.64" y2="122.62"></line><path class="cls-4" d="m45.92,122.72c-.13-.16-.26-.31-.41-.45"></path><path class="cls-4" d="m46.38,122.31c-.13-.16-.26-.32-.42-.46"></path><line class="cls-4" x1="45.23" y1="121.99" x2="44.79" y2="121.57"></line><line class="cls-4" x1="45.67" y1="121.57" x2="45.23" y2="121.13"></line><line class="cls-4" x1="44.51" y1="121.29" x2="44.08" y2="120.86"></line><line class="cls-4" x1="44.94" y1="120.85" x2="44.5" y2="120.41"></line><path class="cls-4" d="m43.79,120.58c-.14-.15-.31-.26-.46-.4"></path><path class="cls-4" d="m44.21,120.13c-.14-.15-.32-.27-.47-.4"></path><line class="cls-4" x1="43.02" y1="119.94" x2="42.55" y2="119.55"></line><line class="cls-4" x1="43.42" y1="119.47" x2="42.94" y2="119.07"></line><line class="cls-4" x1="42.25" y1="119.3" x2="41.77" y2="118.91"></line><line class="cls-4" x1="42.63" y1="118.82" x2="42.15" y2="118.42"></line><line class="cls-4" x1="41.46" y1="118.67" x2="40.96" y2="118.32"></line><line class="cls-4" x1="41.83" y1="118.17" x2="41.32" y2="117.82"></line><line class="cls-4" x1="40.63" y1="118.1" x2="40.13" y2="117.75"></line><line class="cls-4" x1="40.98" y1="117.59" x2="40.47" y2="117.24"></line><line class="cls-4" x1="39.8" y1="117.53" x2="39.3" y2="117.18"></line><line class="cls-4" x1="40.14" y1="117.01" x2="39.62" y2="116.66"></line><line class="cls-4" x1="38.95" y1="116.98" x2="38.43" y2="116.68"></line><line class="cls-4" x1="39.28" y1="116.46" x2="38.74" y2="116.15"></line><line class="cls-4" x1="38.08" y1="116.48" x2="37.55" y2="116.18"></line><line class="cls-4" x1="38.39" y1="115.95" x2="37.85" y2="115.64"></line><path class="cls-4" d="m37.21,115.98c-.17-.11-.36-.2-.54-.28"></path><path class="cls-4" d="m37.5,115.44c-.18-.11-.36-.2-.55-.29"></path><line class="cls-4" x1="36.31" y1="115.53" x2="35.76" y2="115.27"></line><line class="cls-4" x1="36.58" y1="114.98" x2="36.02" y2="114.71"></line><line class="cls-4" x1="35.4" y1="115.1" x2="34.85" y2="114.84"></line><line class="cls-4" x1="35.65" y1="114.54" x2="35.09" y2="114.28"></line><line class="cls-4" x1="34.48" y1="114.68" x2="33.91" y2="114.46"></line><line class="cls-4" x1="34.72" y1="114.11" x2="34.14" y2="113.89"></line><line class="cls-4" x1="33.54" y1="114.32" x2="32.97" y2="114.1"></line><line class="cls-4" x1="33.76" y1="113.75" x2="33.18" y2="113.52"></line><path class="cls-4" d="m32.6,113.96c-.19-.08-.38-.14-.58-.2"></path><path class="cls-4" d="m32.8,113.38c-.19-.08-.39-.15-.59-.2"></path><line class="cls-4" x1="31.64" y1="113.65" x2="31.06" y2="113.48"></line><line class="cls-4" x1="31.83" y1="113.06" x2="31.23" y2="112.89"></line><line class="cls-4" x1="30.68" y1="113.36" x2="30.1" y2="113.19"></line><line class="cls-4" x1="30.84" y1="112.77" x2="30.25" y2="112.6"></line><line class="cls-4" x1="29.71" y1="113.11" x2="29.11" y2="112.98"></line><line class="cls-4" x1="29.85" y1="112.51" x2="29.24" y2="112.38"></line><line class="cls-4" x1="28.73" y1="112.9" x2="28.13" y2="112.78"></line><line class="cls-4" x1="28.84" y1="112.3" x2="28.23" y2="112.17"></line><line class="cls-4" x1="27.74" y1="112.71" x2="27.14" y2="112.64"></line><line class="cls-4" x1="27.83" y1="112.1" x2="27.21" y2="112.03"></line><line class="cls-4" x1="26.75" y1="112.6" x2="26.14" y2="112.53"></line><line class="cls-4" x1="26.81" y1="111.99" x2="26.19" y2="111.92"></line></g></g><polygon points="60.57 57.97 60.32 32.31 60.82 32.31 60.57 57.97 60.57 57.97"></polygon><path d="m69.74,29.98c-2.03,2.53-5.74,2.68-8.44,3.97,1.91.31,3.99-.53,5.91-.86-1.25.36-2.53.67-3.81.91-.27.08-2.95.44-2.02-.25,2.79-1.15,6.29-1.38,8.37-3.76h0Z"></path><path d="m73.55,31.39c-3.13,3.25-8.03,3.71-12.22,4.65,0,0-.03.01-.03.01,0,0,.01,0,.02-.03,0-.16-.04-.09-.03-.11.26.03.87,0,1.15,0,1.72-.05,4.13-.13,5.82-.13.85.01,1.71,0,2.54.16.11.03.27.05.29.17-.11-.21-.45-.17-.66-.21-2.52-.12-5.46.09-8,.17-.31,0-.9.05-1.21,0,0-.03-.07.04-.06-.14.05-.08.22-.09.3-.11,4.14-.86,8.93-1.35,12.09-4.44h0Z"></path><path d="m66.41,37.51c-1.47.07-2.96.06-4.4.36-1.49.44.94.48,1.34.43,2.36-.11,4.7-.39,7.05-.63-2.34.34-4.68.62-7.05.76-.3.01-2.58.16-1.82-.54,1.55-.5,3.25-.37,4.86-.38h0Z"></path><path d="m73.93,38.63c-3.67,1.15-8.73,1.21-12.33,1.9,0-.05-.03-.07-.02-.06.62.33,1.33.43,2.02.54,1.62.22,3.27.28,4.92.34-1.65.06-3.3.01-4.94-.17-4-.62-1.75-1,.58-1.2,2.87-.36,7.01-.57,9.77-1.34h0Z"></path><path d="m73.77,43.72c-3.54-.83-7.27-.99-10.84-.26-.4.11-2.16.49-.93.73,1.34.26,2.74-.11,4.08.12.09.02.19.11.12.2.06-.09-.04-.17-.13-.19-.27-.06-.54-.04-.81-.03-1.07.03-2.23.18-3.29.02-1.48-.35.4-.86.92-.96,3.58-.71,7.34-.54,10.86.38h0Z"></path><path d="m47.91,44.81c2.32-1.49,5.32-1.2,7.97-1.27.9,0,2.55.11,3.43.02.02,0,.03,0,.04-.01,0-.02-.03.08-.01.08-.09-.06-.27-.14-.42-.2-1.28-.42-2.64-.6-3.98-.86,1.51.2,3.13.26,4.53.94.14.28-.37.22-.52.24-2.33-.03-4.82-.2-7.14,0-1.33.15-2.75.26-3.89,1.05h0Z"></path><path d="m72.74,56.09c-3.67-.83-7.33-1.86-11.07-2.26-.07-.02-.17.06-.13-.02.47.35,1.13.54,1.72.76.45.17.93.3,1.33.58.13.08.28.25.17.41.09-.16-.07-.31-.19-.38-.41-.24-.88-.37-1.34-.52-.69-.17-3.2-1.17-.83-.88,3.49.56,6.93,1.42,10.35,2.32h0Z"></path><path d="m49.06,57.24c2.95-2.06,6.74-2.45,10.06-3.68.1-.03.22-.15.2-.11-.12-.07-.33-.14-.5-.16-1.28-.18-2.59-.03-3.89.03,1.44-.16,2.98-.47,4.41-.05.32.13.06.38-.16.45-3.34,1.2-7.11,1.57-10.13,3.53h0Z"></path><path d="m51.06,42.2c1.9-2.06,4.94-2.09,7.53-1.73.22,0,.74.13.82-.1-.35-.33-1.01-.33-1.49-.45-2.63-.41-5.32-.59-7.93-1.15-.85-.22-1.78-.39-2.46-.98.69.58,1.62.72,2.47.92,3.05.68,6.22.62,9.25,1.39.33.09.43.47,0,.52-1.12.01-2.22-.27-3.34-.22-1.76,0-3.58.54-4.86,1.81h0Z"></path><path d="m73.93,50.6c-3.96,1.12-8.19.78-12.24,1.31-.18.05-.04.03-.1-.08,2.13.96,4.62,1.09,6.93,1.49-1.64-.12-3.28-.33-4.9-.65-3.81-.85-2.08-1.09.5-1.16,3.27-.23,6.62-.12,9.81-.91h0Z"></path><path d="m51.06,54.17c1.88-2.01,4.77-2.42,7.39-2.49.21,0,1.23-.08.87-.34-.38-.14-.85-.14-1.29-.16-2.66-.05-5.33.17-7.99-.07-.86-.12-1.83-.17-2.52-.75.7.57,1.67.59,2.52.69,2.66.2,5.32-.02,7.99,0,.45.02.89,0,1.34.16.13.04.22.26.08.37-.3.22-.67.17-1.01.21-2.62.04-5.45.43-7.4,2.36h0Z"></path><path d="m54.32,38.01c1.57-.18,3.17-.29,4.69-.69,0,0-.04.06-.02.08,0,.04.06.06.04.05-.61-.04-1.2-.15-1.79-.25-2.19-.4-4.37-.83-6.54-1.33,2.19.37,4.38.81,6.57,1.17.61.1,1.22.18,1.82.23,0,0,.07.03.08.08.03.16-.2.18-.28.21-1.5.33-3.04.44-4.57.46h0Z"></path><path d="m66.41,48.57c-1.47.07-2.96.06-4.4.36-1.49.44.94.48,1.34.43,2.36-.11,4.7-.39,7.05-.63-2.34.34-4.68.62-7.05.76-.3.01-2.58.16-1.82-.54,1.55-.5,3.25-.37,4.86-.38h0Z"></path><path d="m54.32,49.68c1.57-.18,3.17-.29,4.69-.69,0,0-.04.06-.02.08,0,.04.06.06.04.05-.61-.04-1.2-.15-1.79-.25-2.19-.4-4.37-.83-6.54-1.33,2.19.37,4.38.81,6.57,1.17.61.1,1.22.18,1.82.23,0,0,.07.03.08.08.03.16-.2.18-.28.21-1.5.33-3.04.44-4.57.46h0Z"></path><path d="m47.91,32.83c3.18,2.26,7.69,2.94,11.5,2.66.02.11-.1-.03-.18-.06-2.1-.97-4.45-1.25-6.7-1.73,2,.29,4,.63,5.92,1.25,1.64.56,1.27.8-.2.77-3.56-.16-7.45-.65-10.34-2.9h0Z"></path><path d="m69.63,44.81c-2.54.94-5.26,1.32-7.94,1.65-.2.04,0,0-.1-.1-.03-.01,0,0,0,0,.02,0,.07,0,.09.01,2.98.15,6,.04,8.94.55.16.06.41.06.47.25-.07-.18-.31-.18-.48-.23-2.96-.39-5.97-.24-8.95-.42-.05,0-.12,0-.15-.03-.06-.04-.04-.12-.03-.12.13-.08.13-.04.19-.06,2.68-.3,5.39-.67,7.96-1.5h0Z"></path><path d="m53.69,46.88c1.89-.07,3.93-.02,5.71-.61-1.04-.52-2.43-.62-3.64-.74-1.07-.08-2.15-.13-3.23-.15,1.08-.03,2.16-.02,3.24.06,1.2.11,2.47.14,3.59.65,1.22.77-5.18.9-5.66.79h0Z"></path><path d="m48.75,29.98c3.14,2.04,6.86,3.47,10.62,3.58.08.02.15-.09.12.02-.86-.63-2.15-.65-3.1-1.15-.13-.06-.32-.23-.2-.39-.1.17.09.29.22.35.45.18.93.27,1.39.39,2.44.54,2.51,1.29-.13.82-3.18-.56-6.31-1.71-8.93-3.62h0Z"></path><line class="cls-4" x1="67.57" y1="142.15" x2="67.56" y2="141.52"></line><line class="cls-4" x1="68.18" y1="142.11" x2="68.18" y2="141.5"></line><line class="cls-4" x1="67.56" y1="141.12" x2="67.55" y2="140.5"></line><line class="cls-4" x1="68.17" y1="141.1" x2="68.17" y2="140.49"></line><line class="cls-4" x1="67.55" y1="140.09" x2="67.54" y2="139.47"></line><line class="cls-4" x1="68.16" y1="140.1" x2="68.15" y2="139.49"></line><path class="cls-4" d="m67.54,139.06c-.01-.21.02-.41.04-.62"></path><path class="cls-4" d="m68.15,139.09c-.01-.2.02-.4.04-.61"></path><line class="cls-4" x1="67.63" y1="138.04" x2="67.7" y2="137.42"></line><line class="cls-4" x1="68.24" y1="138.09" x2="68.31" y2="137.49"></line><line class="cls-4" x1="67.74" y1="137.02" x2="67.81" y2="136.4"></line><line class="cls-4" x1="68.35" y1="137.09" x2="68.42" y2="136.49"></line><path class="cls-4" d="m67.86,136c.03-.21.03-.42.08-.62"></path><path class="cls-4" d="m68.46,136.09c.03-.2.03-.41.08-.6"></path><line class="cls-4" x1="68.04" y1="134.99" x2="68.18" y2="134.38"></line><line class="cls-4" x1="68.64" y1="135.11" x2="68.78" y2="134.52"></line><line class="cls-4" x1="68.28" y1="133.99" x2="68.42" y2="133.38"></line><line class="cls-4" x1="68.87" y1="134.13" x2="69.02" y2="133.54"></line><line class="cls-4" x1="68.52" y1="132.99" x2="68.67" y2="132.38"></line><line class="cls-4" x1="69.11" y1="133.15" x2="69.25" y2="132.56"></line><line class="cls-4" x1="68.81" y1="132" x2="69.03" y2="131.42"></line><line class="cls-4" x1="69.39" y1="132.19" x2="69.6" y2="131.62"></line><line class="cls-4" x1="69.17" y1="131.04" x2="69.39" y2="130.46"></line><line class="cls-4" x1="69.74" y1="131.25" x2="69.96" y2="130.68"></line><line class="cls-4" x1="69.53" y1="130.08" x2="69.75" y2="129.49"></line><line class="cls-4" x1="70.1" y1="130.31" x2="70.31" y2="129.74"></line><line class="cls-4" x1="69.93" y1="129.13" x2="70.22" y2="128.58"></line><line class="cls-4" x1="70.49" y1="129.39" x2="70.77" y2="128.85"></line><line class="cls-4" x1="70.41" y1="128.22" x2="70.69" y2="127.66"></line><line class="cls-4" x1="70.95" y1="128.5" x2="71.23" y2="127.96"></line><line class="cls-4" x1="70.88" y1="127.31" x2="71.17" y2="126.75"></line><line class="cls-4" x1="71.41" y1="127.61" x2="71.69" y2="127.07"></line><line class="cls-4" x1="71.39" y1="126.42" x2="71.74" y2="125.9"></line><line class="cls-4" x1="71.92" y1="126.74" x2="72.25" y2="126.23"></line><line class="cls-4" x1="71.96" y1="125.56" x2="72.31" y2="125.04"></line><line class="cls-4" x1="72.48" y1="125.9" x2="72.81" y2="125.4"></line><path class="cls-4" d="m72.54,124.71c.12-.17.22-.35.36-.51"></path><path class="cls-4" d="m73.04,125.07c.12-.17.22-.34.35-.5"></path><line class="cls-4" x1="73.15" y1="123.89" x2="73.55" y2="123.41"></line><line class="cls-4" x1="73.64" y1="124.27" x2="74.03" y2="123.8"></line><line class="cls-4" x1="73.81" y1="123.1" x2="74.21" y2="122.62"></line><line class="cls-4" x1="74.28" y1="123.49" x2="74.67" y2="123.03"></line><path class="cls-4" d="m74.47,122.31c.13-.16.26-.32.42-.46"></path><path class="cls-4" d="m74.93,122.72c.13-.16.26-.31.41-.45"></path><line class="cls-4" x1="75.18" y1="121.57" x2="75.62" y2="121.13"></line><line class="cls-4" x1="75.62" y1="121.99" x2="76.06" y2="121.57"></line><line class="cls-4" x1="75.91" y1="120.85" x2="76.35" y2="120.41"></line><line class="cls-4" x1="76.34" y1="121.29" x2="76.77" y2="120.86"></line><path class="cls-4" d="m76.64,120.13c.14-.15.32-.27.47-.4"></path><path class="cls-4" d="m77.06,120.58c.14-.15.31-.26.46-.4"></path><line class="cls-4" x1="77.43" y1="119.47" x2="77.91" y2="119.07"></line><line class="cls-4" x1="77.82" y1="119.94" x2="78.3" y2="119.55"></line><line class="cls-4" x1="78.22" y1="118.82" x2="78.7" y2="118.42"></line><line class="cls-4" x1="78.6" y1="119.3" x2="79.08" y2="118.91"></line><line class="cls-4" x1="79.02" y1="118.17" x2="79.53" y2="117.82"></line><line class="cls-4" x1="79.39" y1="118.67" x2="79.89" y2="118.32"></line><line class="cls-4" x1="79.87" y1="117.59" x2="80.38" y2="117.24"></line><line class="cls-4" x1="80.22" y1="118.1" x2="80.72" y2="117.75"></line><line class="cls-4" x1="80.71" y1="117.01" x2="81.23" y2="116.66"></line><line class="cls-4" x1="81.05" y1="117.53" x2="81.55" y2="117.18"></line><line class="cls-4" x1="81.57" y1="116.46" x2="82.11" y2="116.15"></line><line class="cls-4" x1="81.89" y1="116.98" x2="82.42" y2="116.68"></line><line class="cls-4" x1="82.46" y1="115.95" x2="83" y2="115.64"></line><line class="cls-4" x1="82.77" y1="116.48" x2="83.3" y2="116.18"></line><path class="cls-4" d="m83.35,115.44c.18-.11.36-.2.55-.29"></path><path class="cls-4" d="m83.64,115.98c.17-.11.36-.2.54-.28"></path><line class="cls-4" x1="84.27" y1="114.98" x2="84.83" y2="114.71"></line><line class="cls-4" x1="84.54" y1="115.53" x2="85.09" y2="115.27"></line><line class="cls-4" x1="85.2" y1="114.54" x2="85.76" y2="114.28"></line><line class="cls-4" x1="85.45" y1="115.1" x2="86" y2="114.84"></line><line class="cls-4" x1="86.13" y1="114.11" x2="86.71" y2="113.89"></line><line class="cls-4" x1="86.37" y1="114.68" x2="86.94" y2="114.46"></line><line class="cls-4" x1="87.09" y1="113.75" x2="87.67" y2="113.52"></line><line class="cls-4" x1="87.31" y1="114.32" x2="87.88" y2="114.1"></line><path class="cls-4" d="m88.05,113.38c.19-.08.39-.15.59-.2"></path><path class="cls-4" d="m88.25,113.96c.19-.08.38-.14.58-.2"></path><line class="cls-4" x1="89.02" y1="113.06" x2="89.62" y2="112.89"></line><line class="cls-4" x1="89.2" y1="113.65" x2="89.79" y2="113.48"></line><line class="cls-4" x1="90.01" y1="112.77" x2="90.6" y2="112.6"></line><line class="cls-4" x1="90.17" y1="113.36" x2="90.75" y2="113.19"></line><line class="cls-4" x1="91" y1="112.51" x2="91.61" y2="112.38"></line><line class="cls-4" x1="91.14" y1="113.11" x2="91.74" y2="112.98"></line><line class="cls-4" x1="92.01" y1="112.3" x2="92.62" y2="112.17"></line><line class="cls-4" x1="92.12" y1="112.9" x2="92.72" y2="112.78"></line><line class="cls-4" x1="93.01" y1="112.1" x2="93.64" y2="112.03"></line><line class="cls-4" x1="93.11" y1="112.71" x2="93.71" y2="112.64"></line><line class="cls-4" x1="94.04" y1="111.99" x2="94.66" y2="111.92"></line><line class="cls-4" x1="94.1" y1="112.6" x2="94.71" y2="112.53"></line><path class="cls-3" d="m33.45,23.26L36.77.75l1.93-.45-3.26,23.5c-.64-.01-1.3-.19-1.98-.54Z"></path><line class="cls-4" x1="37.95" y1=".86" x2="37.87" y2="1.46"></line><line class="cls-4" x1="37.34" y1=".77" x2="37.26" y2="1.37"></line><line class="cls-4" x1="37.81" y1="1.85" x2="37.73" y2="2.45"></line><line class="cls-4" x1="37.2" y1="1.77" x2="37.12" y2="2.37"></line><line class="cls-4" x1="37.67" y1="2.84" x2="37.59" y2="3.44"></line><line class="cls-4" x1="37.06" y1="2.76" x2="36.98" y2="3.36"></line><line class="cls-4" x1="37.53" y1="3.83" x2="37.45" y2="4.43"></line><line class="cls-4" x1="36.93" y1="3.75" x2="36.84" y2="4.35"></line><line class="cls-4" x1="37.4" y1="4.82" x2="37.31" y2="5.42"></line><line class="cls-4" x1="36.79" y1="4.74" x2="36.7" y2="5.34"></line><line class="cls-4" x1="37.26" y1="5.81" x2="37.17" y2="6.41"></line><line class="cls-4" x1="36.65" y1="5.73" x2="36.56" y2="6.33"></line><line class="cls-4" x1="37.12" y1="6.8" x2="37.03" y2="7.4"></line><line class="cls-4" x1="36.51" y1="6.72" x2="36.43" y2="7.32"></line><line class="cls-4" x1="36.98" y1="7.79" x2="36.89" y2="8.39"></line><line class="cls-4" x1="36.37" y1="7.71" x2="36.29" y2="8.31"></line><line class="cls-4" x1="36.84" y1="8.79" x2="36.76" y2="9.39"></line><line class="cls-4" x1="36.23" y1="8.7" x2="36.15" y2="9.3"></line><line class="cls-4" x1="36.7" y1="9.78" x2="36.62" y2="10.38"></line><line class="cls-4" x1="36.09" y1="9.69" x2="36.01" y2="10.29"></line><line class="cls-4" x1="36.56" y1="10.77" x2="36.48" y2="11.37"></line><line class="cls-4" x1="35.95" y1="10.68" x2="35.87" y2="11.28"></line><line class="cls-4" x1="36.42" y1="11.76" x2="36.34" y2="12.36"></line><line class="cls-4" x1="35.82" y1="11.67" x2="35.73" y2="12.27"></line><line class="cls-4" x1="36.29" y1="12.75" x2="36.2" y2="13.35"></line><line class="cls-4" x1="35.68" y1="12.66" x2="35.59" y2="13.26"></line><line class="cls-4" x1="36.15" y1="13.74" x2="36.06" y2="14.34"></line><line class="cls-4" x1="35.54" y1="13.65" x2="35.45" y2="14.25"></line><line class="cls-4" x1="36.01" y1="14.73" x2="35.92" y2="15.33"></line><line class="cls-4" x1="35.4" y1="14.64" x2="35.32" y2="15.24"></line><line class="cls-4" x1="35.87" y1="15.72" x2="35.78" y2="16.32"></line><line class="cls-4" x1="35.26" y1="15.63" x2="35.18" y2="16.23"></line><line class="cls-4" x1="35.73" y1="16.71" x2="35.65" y2="17.31"></line><line class="cls-4" x1="35.12" y1="16.63" x2="35.04" y2="17.23"></line><line class="cls-4" x1="35.59" y1="17.7" x2="35.51" y2="18.3"></line><line class="cls-4" x1="34.98" y1="17.62" x2="34.9" y2="18.22"></line><line class="cls-4" x1="35.45" y1="18.69" x2="35.37" y2="19.29"></line><line class="cls-4" x1="34.84" y1="18.61" x2="34.76" y2="19.21"></line><line class="cls-4" x1="35.31" y1="19.68" x2="35.23" y2="20.28"></line><line class="cls-4" x1="34.71" y1="19.6" x2="34.62" y2="20.2"></line><line class="cls-4" x1="35.18" y1="20.67" x2="35.09" y2="21.27"></line><line class="cls-4" x1="34.57" y1="20.59" x2="34.48" y2="21.19"></line><line class="cls-4" x1="35.04" y1="21.66" x2="34.95" y2="22.26"></line><line class="cls-4" x1="34.43" y1="21.58" x2="34.34" y2="22.18"></line><line class="cls-4" x1="34.9" y1="22.65" x2="34.81" y2="23.25"></line><line class="cls-4" x1="34.29" y1="22.57" x2="34.21" y2="23.17"></line><path class="cls-3" d="m103.91,7.12c-2.92,9.03-8.72,13.76-14.84,17.85-.8.54-1.72.87-2.68.98-7.36.81-14.61,2.03-23.87,5.88-1.25.52-2.66.52-3.91,0-9.4-3.9-16.73-5.1-24.21-5.91-.73-.08-1.42-.33-2.03-.73-6.23-4.14-11.61-8.56-15.07-18.23l1.94-.96c2.87,8.75,7.51,12.91,13.74,17.05.61.4,1.3.66,2.03.73,7.48.81,14.19,2.01,23.59,5.91,1.25.52,2.66.52,3.91,0,9.26-3.85,15.89-5.06,23.25-5.88.96-.11,1.88-.44,2.68-.98,6.12-4.09,10.63-8.11,13.46-16.72l2,1.02Z"></path><line class="cls-4" x1="18.77" y1="6.81" x2="18.97" y2="7.39"></line><line class="cls-4" x1="18.19" y1="7.01" x2="18.4" y2="7.59"></line><path class="cls-4" d="m19.11,7.76c.07.19.13.38.21.57"></path><path class="cls-4" d="m18.53,7.97c.07.19.13.39.22.58"></path><line class="cls-4" x1="19.47" y1="8.69" x2="19.69" y2="9.25"></line><line class="cls-4" x1="18.9" y1="8.92" x2="19.13" y2="9.49"></line><line class="cls-4" x1="19.84" y1="9.62" x2="20.1" y2="10.17"></line><line class="cls-4" x1="19.28" y1="9.86" x2="19.54" y2="10.42"></line><line class="cls-4" x1="20.27" y1="10.52" x2="20.52" y2="11.07"></line><line class="cls-4" x1="19.71" y1="10.79" x2="19.98" y2="11.35"></line><line class="cls-4" x1="20.71" y1="11.42" x2="20.99" y2="11.95"></line><line class="cls-4" x1="20.16" y1="11.7" x2="20.45" y2="12.25"></line><line class="cls-4" x1="21.17" y1="12.3" x2="21.48" y2="12.82"></line><line class="cls-4" x1="20.64" y1="12.6" x2="20.96" y2="13.13"></line><path class="cls-4" d="m21.69,13.16c.11.17.2.35.32.52"></path><path class="cls-4" d="m21.16,13.48c.11.18.21.36.32.53"></path><line class="cls-4" x1="22.22" y1="14" x2="22.56" y2="14.5"></line><line class="cls-4" x1="21.71" y1="14.34" x2="22.05" y2="14.86"></line><line class="cls-4" x1="22.78" y1="14.83" x2="23.15" y2="15.31"></line><line class="cls-4" x1="22.28" y1="15.18" x2="22.65" y2="15.68"></line><path class="cls-4" d="m23.38,15.63c.12.16.25.32.38.47"></path><path class="cls-4" d="m22.89,16c.12.17.26.32.39.48"></path><line class="cls-4" x1="24.01" y1="16.4" x2="24.4" y2="16.87"></line><line class="cls-4" x1="23.54" y1="16.8" x2="23.93" y2="17.27"></line><line class="cls-4" x1="24.66" y1="17.16" x2="25.07" y2="17.6"></line><line class="cls-4" x1="24.21" y1="17.57" x2="24.62" y2="18.02"></line><line class="cls-4" x1="25.34" y1="17.89" x2="25.77" y2="18.32"></line><line class="cls-4" x1="24.9" y1="18.32" x2="25.33" y2="18.75"></line><path class="cls-4" d="m26.05,18.6c.14.15.29.28.44.42"></path><path class="cls-4" d="m25.62,19.04c.14.15.3.28.45.42"></path><line class="cls-4" x1="26.78" y1="19.28" x2="27.22" y2="19.69"></line><line class="cls-4" x1="26.36" y1="19.73" x2="26.82" y2="20.15"></line><line class="cls-4" x1="27.52" y1="19.94" x2="27.99" y2="20.34"></line><line class="cls-4" x1="27.12" y1="20.41" x2="27.59" y2="20.81"></line><line class="cls-4" x1="28.29" y1="20.59" x2="28.77" y2="20.96"></line><line class="cls-4" x1="27.9" y1="21.06" x2="28.39" y2="21.45"></line><line class="cls-4" x1="29.08" y1="21.21" x2="29.56" y2="21.58"></line><line class="cls-4" x1="28.7" y1="21.7" x2="29.19" y2="22.07"></line><line class="cls-4" x1="29.88" y1="21.81" x2="30.37" y2="22.18"></line><line class="cls-4" x1="29.51" y1="22.31" x2="30.01" y2="22.67"></line><line class="cls-4" x1="30.69" y1="22.4" x2="31.19" y2="22.76"></line><line class="cls-4" x1="30.33" y1="22.9" x2="30.83" y2="23.26"></line><line class="cls-4" x1="31.51" y1="22.98" x2="32.02" y2="23.32"></line><line class="cls-4" x1="31.16" y1="23.49" x2="31.67" y2="23.83"></line><path class="cls-4" d="m32.34,23.54c.17.12.33.22.49.31"></path><path class="cls-4" d="m32,24.06c.17.11.35.24.54.34"></path><path class="cls-4" d="m33.17,24.03c.17.08.35.14.53.2"></path><path class="cls-4" d="m32.92,24.59c.2.09.4.16.61.23"></path><path class="cls-4" d="m34.06,24.31c.19.04.37.06.58.08"></path><path class="cls-4" d="m33.94,24.91c.21.04.44.07.63.09"></path><line class="cls-4" x1="35.04" y1="24.44" x2="35.65" y2="24.51"></line><line class="cls-4" x1="34.97" y1="25.05" x2="35.58" y2="25.12"></line><line class="cls-4" x1="36.04" y1="24.56" x2="36.65" y2="24.64"></line><line class="cls-4" x1="35.97" y1="25.17" x2="36.57" y2="25.24"></line><line class="cls-4" x1="37.05" y1="24.69" x2="37.66" y2="24.77"></line><line class="cls-4" x1="36.97" y1="25.29" x2="37.57" y2="25.38"></line><line class="cls-4" x1="38.05" y1="24.82" x2="38.66" y2="24.91"></line><line class="cls-4" x1="37.96" y1="25.43" x2="38.57" y2="25.52"></line><line class="cls-4" x1="39.05" y1="24.97" x2="39.66" y2="25.07"></line><line class="cls-4" x1="38.96" y1="25.58" x2="39.56" y2="25.67"></line><line class="cls-4" x1="40.05" y1="25.13" x2="40.66" y2="25.23"></line><line class="cls-4" x1="39.95" y1="25.74" x2="40.55" y2="25.84"></line><line class="cls-4" x1="41.05" y1="25.3" x2="41.66" y2="25.41"></line><line class="cls-4" x1="40.95" y1="25.91" x2="41.55" y2="26.01"></line><line class="cls-4" x1="42.05" y1="25.48" x2="42.65" y2="25.6"></line><line class="cls-4" x1="41.93" y1="26.09" x2="42.53" y2="26.2"></line><line class="cls-4" x1="43.04" y1="25.67" x2="43.64" y2="25.8"></line><line class="cls-4" x1="42.92" y1="26.28" x2="43.52" y2="26.4"></line><line class="cls-4" x1="44.04" y1="25.88" x2="44.64" y2="26.01"></line><line class="cls-4" x1="43.91" y1="26.48" x2="44.5" y2="26.61"></line><line class="cls-4" x1="45.02" y1="26.1" x2="45.62" y2="26.24"></line><line class="cls-4" x1="44.89" y1="26.7" x2="45.48" y2="26.84"></line><line class="cls-4" x1="46.01" y1="26.33" x2="46.61" y2="26.48"></line><line class="cls-4" x1="45.87" y1="26.93" x2="46.46" y2="27.07"></line><line class="cls-4" x1="47" y1="26.58" x2="47.59" y2="26.73"></line><line class="cls-4" x1="46.84" y1="27.17" x2="47.44" y2="27.32"></line><line class="cls-4" x1="47.98" y1="26.83" x2="48.57" y2="26.99"></line><line class="cls-4" x1="47.82" y1="27.42" x2="48.41" y2="27.58"></line><line class="cls-4" x1="48.95" y1="27.1" x2="49.54" y2="27.27"></line><line class="cls-4" x1="48.79" y1="27.69" x2="49.37" y2="27.86"></line><line class="cls-4" x1="49.93" y1="27.38" x2="50.52" y2="27.55"></line><line class="cls-4" x1="49.75" y1="27.97" x2="50.34" y2="28.14"></line><line class="cls-4" x1="50.9" y1="27.67" x2="51.48" y2="27.85"></line><line class="cls-4" x1="50.72" y1="28.25" x2="51.3" y2="28.44"></line><line class="cls-4" x1="51.86" y1="27.97" x2="52.45" y2="28.16"></line><line class="cls-4" x1="51.68" y1="28.56" x2="52.26" y2="28.74"></line><line class="cls-4" x1="52.83" y1="28.29" x2="53.41" y2="28.48"></line><line class="cls-4" x1="52.63" y1="28.87" x2="53.21" y2="29.07"></line><line class="cls-4" x1="53.79" y1="28.61" x2="54.37" y2="28.82"></line><line class="cls-4" x1="53.59" y1="29.19" x2="54.16" y2="29.4"></line><line class="cls-4" x1="54.74" y1="28.95" x2="55.32" y2="29.16"></line><line class="cls-4" x1="54.53" y1="29.53" x2="55.11" y2="29.74"></line><line class="cls-4" x1="55.69" y1="29.3" x2="56.27" y2="29.52"></line><line class="cls-4" x1="55.48" y1="29.87" x2="56.05" y2="30.09"></line><line class="cls-4" x1="56.64" y1="29.66" x2="57.21" y2="29.88"></line><line class="cls-4" x1="56.42" y1="30.23" x2="56.99" y2="30.45"></line><line class="cls-4" x1="57.58" y1="30.03" x2="58.15" y2="30.26"></line><line class="cls-4" x1="57.36" y1="30.6" x2="57.92" y2="30.82"></line><line class="cls-4" x1="58.52" y1="30.4" x2="59.09" y2="30.63"></line><line class="cls-4" x1="58.29" y1="30.97" x2="58.86" y2="31.2"></line><path class="cls-4" d="m59.44,30.77c.18.06.37.12.55.15"></path><path class="cls-4" d="m59.25,31.35c.2.07.41.13.63.17"></path><path class="cls-4" d="m60.35,30.97c.18.01.37.01.55,0"></path><path class="cls-4" d="m60.3,31.58c.22.02.45.01.67-.01"></path><path class="cls-4" d="m61.26,30.9c.18-.05.37-.1.55-.17"></path><path class="cls-4" d="m61.4,31.5c.21-.05.42-.11.62-.19"></path><line class="cls-4" x1="62.17" y1="30.59" x2="62.74" y2="30.36"></line><line class="cls-4" x1="62.4" y1="31.16" x2="62.97" y2="30.93"></line><line class="cls-4" x1="63.11" y1="30.21" x2="63.68" y2="29.98"></line><line class="cls-4" x1="63.34" y1="30.78" x2="63.9" y2="30.55"></line><line class="cls-4" x1="64.05" y1="29.83" x2="64.62" y2="29.62"></line><line class="cls-4" x1="64.27" y1="30.41" x2="64.84" y2="30.19"></line><line class="cls-4" x1="64.99" y1="29.47" x2="65.57" y2="29.25"></line><line class="cls-4" x1="65.21" y1="30.05" x2="65.78" y2="29.83"></line><line class="cls-4" x1="65.94" y1="29.12" x2="66.52" y2="28.91"></line><line class="cls-4" x1="66.15" y1="29.7" x2="66.73" y2="29.49"></line><line class="cls-4" x1="66.89" y1="28.78" x2="67.47" y2="28.57"></line><line class="cls-4" x1="67.1" y1="29.35" x2="67.67" y2="29.15"></line><line class="cls-4" x1="67.85" y1="28.45" x2="68.43" y2="28.25"></line><line class="cls-4" x1="68.05" y1="29.03" x2="68.63" y2="28.83"></line><line class="cls-4" x1="68.81" y1="28.12" x2="69.4" y2="27.94"></line><line class="cls-4" x1="69" y1="28.7" x2="69.58" y2="28.52"></line><line class="cls-4" x1="69.78" y1="27.82" x2="70.36" y2="27.63"></line><line class="cls-4" x1="69.96" y1="28.4" x2="70.54" y2="28.22"></line><line class="cls-4" x1="70.75" y1="27.52" x2="71.33" y2="27.34"></line><line class="cls-4" x1="70.92" y1="28.1" x2="71.51" y2="27.93"></line><line class="cls-4" x1="71.72" y1="27.23" x2="72.31" y2="27.06"></line><line class="cls-4" x1="71.89" y1="27.82" x2="72.47" y2="27.66"></line><line class="cls-4" x1="72.69" y1="26.96" x2="73.29" y2="26.8"></line><line class="cls-4" x1="72.86" y1="27.55" x2="73.44" y2="27.39"></line><line class="cls-4" x1="73.67" y1="26.69" x2="74.27" y2="26.54"></line><line class="cls-4" x1="73.83" y1="27.29" x2="74.42" y2="27.14"></line><line class="cls-4" x1="74.65" y1="26.45" x2="75.25" y2="26.3"></line><line class="cls-4" x1="74.8" y1="27.04" x2="75.39" y2="26.9"></line><line class="cls-4" x1="75.64" y1="26.21" x2="76.24" y2="26.07"></line><line class="cls-4" x1="75.78" y1="26.81" x2="76.37" y2="26.67"></line><line class="cls-4" x1="76.63" y1="25.98" x2="77.23" y2="25.86"></line><line class="cls-4" x1="76.76" y1="26.58" x2="77.36" y2="26.46"></line><line class="cls-4" x1="77.62" y1="25.77" x2="78.22" y2="25.65"></line><line class="cls-4" x1="77.74" y1="26.37" x2="78.34" y2="26.25"></line><line class="cls-4" x1="78.61" y1="25.57" x2="79.22" y2="25.46"></line><line class="cls-4" x1="78.73" y1="26.18" x2="79.33" y2="26.06"></line><line class="cls-4" x1="79.61" y1="25.39" x2="80.21" y2="25.28"></line><line class="cls-4" x1="79.72" y1="25.99" x2="80.32" y2="25.88"></line><line class="cls-4" x1="80.61" y1="25.21" x2="81.21" y2="25.11"></line><line class="cls-4" x1="80.71" y1="25.81" x2="81.31" y2="25.72"></line><line class="cls-4" x1="81.61" y1="25.05" x2="82.21" y2="24.95"></line><line class="cls-4" x1="81.7" y1="25.65" x2="82.3" y2="25.56"></line><line class="cls-4" x1="82.61" y1="24.89" x2="83.21" y2="24.8"></line><line class="cls-4" x1="82.7" y1="25.5" x2="83.3" y2="25.41"></line><line class="cls-4" x1="83.61" y1="24.75" x2="84.22" y2="24.67"></line><line class="cls-4" x1="83.69" y1="25.36" x2="84.3" y2="25.28"></line><line class="cls-4" x1="84.61" y1="24.62" x2="85.22" y2="24.54"></line><line class="cls-4" x1="84.69" y1="25.23" x2="85.3" y2="25.15"></line><line class="cls-4" x1="85.62" y1="24.5" x2="86.23" y2="24.42"></line><line class="cls-4" x1="85.69" y1="25.11" x2="86.3" y2="25.03"></line><path class="cls-4" d="m86.61,24.38c.19-.03.38-.07.57-.12"></path><path class="cls-4" d="m86.7,24.98c.21-.03.42-.08.63-.13"></path><path class="cls-4" d="m87.54,24.15c.18-.06.36-.13.54-.21"></path><path class="cls-4" d="m87.73,24.73c.2-.07.4-.15.6-.23"></path><path class="cls-4" d="m88.42,23.77c.17-.09.34-.19.5-.3"></path><path class="cls-4" d="m88.71,24.31c.19-.1.37-.21.55-.33"></path><line class="cls-4" x1="89.24" y1="23.25" x2="89.75" y2="22.91"></line><line class="cls-4" x1="89.59" y1="23.76" x2="90.1" y2="23.42"></line><line class="cls-4" x1="90.08" y1="22.69" x2="90.58" y2="22.34"></line><line class="cls-4" x1="90.43" y1="23.19" x2="90.93" y2="22.84"></line><line class="cls-4" x1="90.9" y1="22.11" x2="91.4" y2="21.76"></line><line class="cls-4" x1="91.26" y1="22.62" x2="91.76" y2="22.26"></line><line class="cls-4" x1="91.72" y1="21.53" x2="92.21" y2="21.17"></line><line class="cls-4" x1="92.08" y1="22.02" x2="92.58" y2="21.66"></line><line class="cls-4" x1="92.52" y1="20.93" x2="93" y2="20.55"></line><line class="cls-4" x1="92.89" y1="21.41" x2="93.38" y2="21.04"></line><line class="cls-4" x1="93.3" y1="20.3" x2="93.77" y2="19.92"></line><line class="cls-4" x1="93.69" y1="20.78" x2="94.17" y2="20.39"></line><line class="cls-4" x1="94.07" y1="19.66" x2="94.52" y2="19.26"></line><line class="cls-4" x1="94.47" y1="20.12" x2="94.93" y2="19.71"></line><line class="cls-4" x1="94.81" y1="18.99" x2="95.24" y2="18.57"></line><line class="cls-4" x1="95.23" y1="19.44" x2="95.67" y2="19"></line><path class="cls-4" d="m95.52,18.29c.15-.14.28-.29.41-.44"></path><path class="cls-4" d="m95.96,18.72c.15-.14.28-.3.42-.45"></path><path class="cls-4" d="m96.2,17.56c.14-.15.27-.3.4-.45"></path><path class="cls-4" d="m96.65,17.97c.14-.15.28-.3.41-.46"></path><line class="cls-4" x1="96.85" y1="16.81" x2="97.23" y2="16.34"></line><line class="cls-4" x1="97.32" y1="17.2" x2="97.71" y2="16.72"></line><line class="cls-4" x1="97.47" y1="16.03" x2="97.83" y2="15.54"></line><line class="cls-4" x1="97.96" y1="16.4" x2="98.33" y2="15.9"></line><line class="cls-4" x1="98.06" y1="15.22" x2="98.41" y2="14.72"></line><line class="cls-4" x1="98.57" y1="15.58" x2="98.91" y2="15.07"></line><path class="cls-4" d="m98.63,14.4c.12-.17.22-.34.33-.51"></path><path class="cls-4" d="m99.14,14.74c.12-.17.23-.34.34-.52"></path><line class="cls-4" x1="99.16" y1="13.55" x2="99.48" y2="13.04"></line><line class="cls-4" x1="99.69" y1="13.88" x2="100.01" y2="13.35"></line><line class="cls-4" x1="99.68" y1="12.7" x2="99.98" y2="12.17"></line><line class="cls-4" x1="100.21" y1="13.01" x2="100.52" y2="12.47"></line><path class="cls-4" d="m100.18,11.83c.1-.18.2-.35.29-.53"></path><path class="cls-4" d="m100.72,12.13c.1-.18.2-.36.3-.54"></path><line class="cls-4" x1="100.66" y1="10.94" x2="100.94" y2="10.41"></line><line class="cls-4" x1="101.2" y1="11.23" x2="101.48" y2="10.69"></line><line class="cls-4" x1="101.12" y1="10.06" x2="101.39" y2="9.51"></line><line class="cls-4" x1="101.67" y1="10.33" x2="101.94" y2="9.78"></line><line class="cls-4" x1="101.56" y1="9.15" x2="101.83" y2="8.6"></line><line class="cls-4" x1="102.11" y1="9.42" x2="102.38" y2="8.87"></line><line class="cls-4" x1="102" y1="8.25" x2="102.25" y2="7.69"></line><line class="cls-4" x1="102.56" y1="8.51" x2="102.81" y2="7.95"></line><line class="cls-4" x1="102.42" y1="7.33" x2="102.67" y2="6.78"></line><line class="cls-4" x1="102.98" y1="7.59" x2="103.23" y2="7.03"></line><path class="cls-3" d="m88,25.53c-.51.21-1.05.35-1.6.41-7.36.81-14.61,2.03-23.87,5.88-1.25.52-2.66.52-3.91,0-9.4-3.9-16.73-5.1-24.21-5.91-.53-.06-1.03-.21-1.51-.44-3.57,4.19-6.38,10.99-6.38,10.99,1.23,10,7.34,30.1,7.37,38.72.04,8.67-8.2,20.46-8.02,38.48,10.52.66,26.92,9.56,26.18,28.6,0,0,4.9.75,8.36.75s8.36-.75,8.36-.75c-.75-19.04,15.66-27.94,26.18-28.6.18-18.02-8.05-29.81-8.02-38.48.04-8.62,6.18-28.7,7.4-38.69,0,0-2.8-6.75-6.35-10.95Z"></path><path class="cls-3" d="m88.95,60.56c-5.14,0-18.14.01-26.36-2.24-1.42-.39-2.92-.39-4.33,0-8.22,2.25-21.22,2.24-26.36,2.24"></path><path class="cls-3" d="m88,25.53c3.55,4.2,6.32,10.92,6.32,10.92,0,0,1.94-1.93,4.55-2.73,3.01-.92,6.74.66,10.52,2.3l9.75-17c-12.97-10.98-15.16-11.88-15.16-11.88"></path><path class="cls-3" d="m17.15,7.02s-2.36,1.04-15.33,12.01l9.75,17c3.78-1.63,7.5-3.22,10.52-2.3,2.61.8,4.55,2.73,4.55,2.73"></path><g id="BoS_Sleeve-7"><path class="cls-1" d="m119.14,19.03l-9.75,17.05c.2.1,1.33.77,1.53.87l9.85-16.74c-.59-.36-1.09-.85-1.63-1.17Z"></path><line class="cls-2" x1="120.17" y1="20.02" x2="119.88" y2="20.53"></line><line class="cls-2" x1="119.66" y1="19.72" x2="119.36" y2="20.23"></line><line class="cls-2" x1="119.68" y1="20.86" x2="119.39" y2="21.36"></line><line class="cls-2" x1="119.17" y1="20.56" x2="118.88" y2="21.07"></line><line class="cls-2" x1="119.2" y1="21.69" x2="118.9" y2="22.2"></line><line class="cls-2" x1="118.68" y1="21.4" x2="118.39" y2="21.9"></line><line class="cls-2" x1="118.71" y1="22.53" x2="118.41" y2="23.04"></line><line class="cls-2" x1="118.2" y1="22.23" x2="117.9" y2="22.74"></line><line class="cls-2" x1="118.22" y1="23.37" x2="117.92" y2="23.88"></line><line class="cls-2" x1="117.71" y1="23.07" x2="117.41" y2="23.58"></line><line class="cls-2" x1="117.73" y1="24.21" x2="117.43" y2="24.72"></line><line class="cls-2" x1="117.22" y1="23.91" x2="116.92" y2="24.42"></line><line class="cls-2" x1="117.24" y1="25.05" x2="116.95" y2="25.55"></line><line class="cls-2" x1="116.73" y1="24.75" x2="116.43" y2="25.26"></line><line class="cls-2" x1="116.75" y1="25.88" x2="116.46" y2="26.39"></line><line class="cls-2" x1="116.24" y1="25.59" x2="115.95" y2="26.09"></line><line class="cls-2" x1="116.27" y1="26.72" x2="115.97" y2="27.23"></line><line class="cls-2" x1="115.75" y1="26.42" x2="115.46" y2="26.93"></line><line class="cls-2" x1="115.78" y1="27.56" x2="115.48" y2="28.07"></line><line class="cls-2" x1="115.26" y1="27.26" x2="114.97" y2="27.77"></line><line class="cls-2" x1="115.29" y1="28.4" x2="114.99" y2="28.91"></line><line class="cls-2" x1="114.78" y1="28.1" x2="114.48" y2="28.61"></line><line class="cls-2" x1="114.8" y1="29.24" x2="114.5" y2="29.74"></line><line class="cls-2" x1="114.29" y1="28.94" x2="113.99" y2="29.45"></line><line class="cls-2" x1="114.31" y1="30.07" x2="114.02" y2="30.58"></line><line class="cls-2" x1="113.8" y1="29.78" x2="113.5" y2="30.28"></line><line class="cls-2" x1="113.82" y1="30.91" x2="113.53" y2="31.42"></line><line class="cls-2" x1="113.31" y1="30.61" x2="113.01" y2="31.12"></line><line class="cls-2" x1="113.33" y1="31.75" x2="113.04" y2="32.26"></line><line class="cls-2" x1="112.82" y1="31.45" x2="112.53" y2="31.96"></line><line class="cls-2" x1="112.85" y1="32.59" x2="112.55" y2="33.1"></line><line class="cls-2" x1="112.33" y1="32.29" x2="112.04" y2="32.8"></line><line class="cls-2" x1="112.36" y1="33.43" x2="112.06" y2="33.93"></line><line class="cls-2" x1="111.85" y1="33.13" x2="111.55" y2="33.64"></line><line class="cls-2" x1="111.87" y1="34.26" x2="111.57" y2="34.77"></line><line class="cls-2" x1="111.36" y1="33.97" x2="111.06" y2="34.47"></line><line class="cls-2" x1="111.38" y1="35.1" x2="111.08" y2="35.61"></line><line class="cls-2" x1="110.87" y1="34.8" x2="110.57" y2="35.31"></line><line class="cls-2" x1="110.89" y1="35.94" x2="110.6" y2="36.45"></line><line class="cls-2" x1="110.38" y1="35.64" x2="110.08" y2="36.15"></line></g><g id="BoS_Sleeve-8"><path class="cls-1" d="m1.86,19.05l9.75,17.05c-.2.1-1.33.77-1.53.87L.22,20.22c.59-.36,1.09-.85,1.63-1.17Z"></path><line class="cls-2" x1="1.33" y1="19.75" x2="1.63" y2="20.25"></line><line class="cls-2" x1=".82" y1="20.04" x2="1.12" y2="20.55"></line><line class="cls-2" x1="1.82" y1="20.58" x2="2.12" y2="21.09"></line><line class="cls-2" x1="1.31" y1="20.88" x2="1.6" y2="21.39"></line><line class="cls-2" x1="2.31" y1="21.42" x2="2.61" y2="21.93"></line><line class="cls-2" x1="1.8" y1="21.72" x2="2.09" y2="22.23"></line><line class="cls-2" x1="2.8" y1="22.26" x2="3.09" y2="22.77"></line><line class="cls-2" x1="2.29" y1="22.56" x2="2.58" y2="23.07"></line><line class="cls-2" x1="3.29" y1="23.1" x2="3.58" y2="23.61"></line><line class="cls-2" x1="2.77" y1="23.4" x2="3.07" y2="23.9"></line><line class="cls-2" x1="3.77" y1="23.94" x2="4.07" y2="24.44"></line><line class="cls-2" x1="3.26" y1="24.23" x2="3.56" y2="24.74"></line><line class="cls-2" x1="4.26" y1="24.77" x2="4.56" y2="25.28"></line><line class="cls-2" x1="3.75" y1="25.07" x2="4.05" y2="25.58"></line><line class="cls-2" x1="4.75" y1="25.61" x2="5.05" y2="26.12"></line><line class="cls-2" x1="4.24" y1="25.91" x2="4.53" y2="26.42"></line><line class="cls-2" x1="5.24" y1="26.45" x2="5.54" y2="26.96"></line><line class="cls-2" x1="4.73" y1="26.75" x2="5.02" y2="27.26"></line><line class="cls-2" x1="5.73" y1="27.29" x2="6.02" y2="27.8"></line><line class="cls-2" x1="5.22" y1="27.59" x2="5.51" y2="28.09"></line><line class="cls-2" x1="6.22" y1="28.13" x2="6.51" y2="28.63"></line><line class="cls-2" x1="5.7" y1="28.42" x2="6" y2="28.93"></line><line class="cls-2" x1="6.7" y1="28.96" x2="7" y2="29.47"></line><line class="cls-2" x1="6.19" y1="29.26" x2="6.49" y2="29.77"></line><line class="cls-2" x1="7.19" y1="29.8" x2="7.49" y2="30.31"></line><line class="cls-2" x1="6.68" y1="30.1" x2="6.98" y2="30.61"></line><line class="cls-2" x1="7.68" y1="30.64" x2="7.98" y2="31.15"></line><line class="cls-2" x1="7.17" y1="30.94" x2="7.47" y2="31.45"></line><line class="cls-2" x1="8.17" y1="31.48" x2="8.47" y2="31.99"></line><line class="cls-2" x1="7.66" y1="31.78" x2="7.95" y2="32.28"></line><line class="cls-2" x1="8.66" y1="32.32" x2="8.95" y2="32.82"></line><line class="cls-2" x1="8.15" y1="32.61" x2="8.44" y2="33.12"></line><line class="cls-2" x1="9.15" y1="33.15" x2="9.44" y2="33.66"></line><line class="cls-2" x1="8.63" y1="33.45" x2="8.93" y2="33.96"></line><line class="cls-2" x1="9.64" y1="33.99" x2="9.93" y2="34.5"></line><line class="cls-2" x1="9.12" y1="34.29" x2="9.42" y2="34.8"></line><line class="cls-2" x1="10.12" y1="34.83" x2="10.42" y2="35.34"></line><line class="cls-2" x1="9.61" y1="35.13" x2="9.91" y2="35.64"></line><line class="cls-2" x1="10.61" y1="35.67" x2="10.91" y2="36.18"></line><line class="cls-2" x1="10.1" y1="35.97" x2="10.4" y2="36.47"></line></g><path class="cls-3" d="m87.58,23.27l-3.32-22.52-1.93-.45,3.26,23.5c.64-.01,1.3-.19,1.98-.54Z"></path><line class="cls-4" x1="83.69" y1=".78" x2="83.78" y2="1.38"></line><line class="cls-4" x1="83.09" y1=".86" x2="83.17" y2="1.46"></line><line class="cls-4" x1="83.83" y1="1.77" x2="83.92" y2="2.37"></line><line class="cls-4" x1="83.22" y1="1.85" x2="83.31" y2="2.45"></line><line class="cls-4" x1="83.97" y1="2.76" x2="84.06" y2="3.36"></line><line class="cls-4" x1="83.36" y1="2.84" x2="83.45" y2="3.44"></line><line class="cls-4" x1="84.11" y1="3.75" x2="84.19" y2="4.35"></line><line class="cls-4" x1="83.5" y1="3.83" x2="83.59" y2="4.43"></line><line class="cls-4" x1="84.25" y1="4.74" x2="84.33" y2="5.34"></line><line class="cls-4" x1="83.64" y1="4.82" x2="83.72" y2="5.42"></line><line class="cls-4" x1="84.39" y1="5.73" x2="84.47" y2="6.33"></line><line class="cls-4" x1="83.78" y1="5.81" x2="83.86" y2="6.42"></line><line class="cls-4" x1="84.53" y1="6.72" x2="84.61" y2="7.32"></line><line class="cls-4" x1="83.92" y1="6.81" x2="84" y2="7.41"></line><line class="cls-4" x1="84.66" y1="7.71" x2="84.75" y2="8.31"></line><line class="cls-4" x1="84.06" y1="7.8" x2="84.14" y2="8.4"></line><line class="cls-4" x1="84.8" y1="8.7" x2="84.89" y2="9.3"></line><line class="cls-4" x1="84.2" y1="8.79" x2="84.28" y2="9.39"></line><line class="cls-4" x1="84.94" y1="9.69" x2="85.03" y2="10.29"></line><line class="cls-4" x1="84.33" y1="9.78" x2="84.42" y2="10.38"></line><line class="cls-4" x1="85.08" y1="10.68" x2="85.17" y2="11.28"></line><line class="cls-4" x1="84.47" y1="10.77" x2="84.56" y2="11.37"></line><line class="cls-4" x1="85.22" y1="11.67" x2="85.3" y2="12.27"></line><line class="cls-4" x1="84.61" y1="11.76" x2="84.7" y2="12.36"></line><line class="cls-4" x1="85.36" y1="12.66" x2="85.44" y2="13.26"></line><line class="cls-4" x1="84.75" y1="12.75" x2="84.83" y2="13.35"></line><line class="cls-4" x1="85.5" y1="13.66" x2="85.58" y2="14.26"></line><line class="cls-4" x1="84.89" y1="13.74" x2="84.97" y2="14.34"></line><line class="cls-4" x1="85.64" y1="14.65" x2="85.72" y2="15.25"></line><line class="cls-4" x1="85.03" y1="14.73" x2="85.11" y2="15.33"></line><line class="cls-4" x1="85.77" y1="15.64" x2="85.86" y2="16.24"></line><line class="cls-4" x1="85.17" y1="15.72" x2="85.25" y2="16.32"></line><line class="cls-4" x1="85.91" y1="16.63" x2="86" y2="17.23"></line><line class="cls-4" x1="85.31" y1="16.71" x2="85.39" y2="17.31"></line><line class="cls-4" x1="86.05" y1="17.62" x2="86.14" y2="18.22"></line><line class="cls-4" x1="85.44" y1="17.7" x2="85.53" y2="18.3"></line><line class="cls-4" x1="86.19" y1="18.61" x2="86.28" y2="19.21"></line><line class="cls-4" x1="85.58" y1="18.69" x2="85.67" y2="19.29"></line><line class="cls-4" x1="86.33" y1="19.6" x2="86.41" y2="20.2"></line><line class="cls-4" x1="85.72" y1="19.68" x2="85.81" y2="20.28"></line><line class="cls-4" x1="86.47" y1="20.59" x2="86.55" y2="21.19"></line><line class="cls-4" x1="85.86" y1="20.67" x2="85.94" y2="21.28"></line><line class="cls-4" x1="86.61" y1="21.58" x2="86.69" y2="22.18"></line><line class="cls-4" x1="86" y1="21.67" x2="86.08" y2="22.27"></line><line class="cls-4" x1="86.75" y1="22.57" x2="86.83" y2="23.17"></line><line class="cls-4" x1="86.14" y1="22.66" x2="86.22" y2="23.26"></line></g></g></svg>