<?xml version="1.0" encoding="iso-8859-1"?>
<!-- Generator: Adobe Illustrator 16.0.0, SVG Export Plug-In . SVG Version: 6.00 Build 0)  -->
<!DOCTYPE svg PUBLIC "-//W3C//DTD SVG 1.1//EN" "http://www.w3.org/Graphics/SVG/1.1/DTD/svg11.dtd">
<svg version="1.1" id="Layer_1" xmlns="http://www.w3.org/2000/svg" xmlns:xlink="http://www.w3.org/1999/xlink" x="0px" y="0px"
	 width="500px" height="198.846px" viewBox="0 0 500 198.846" style="enable-background:new 0 0 500 198.846;" xml:space="preserve"
	>
<g id="change1">
	<path style="fill:#54A4A6;" d="M450.439,39.855h-0.008c-9.871,0-17.945,8.072-17.944,17.952v0.004l-0.001-0.004
		c0,2.743-2.227,4.962-4.97,4.962h-37.657c-3.801-0.285-7.009-2.698-8.433-6.042h-0.015C369.575,23.752,337.953,0,301.042,0H23.889
		C10.749,0,0,10.749,0,23.896v151.068c0,13.133,10.749,23.882,23.889,23.883h277.153c36.909,0,68.529-23.749,80.366-56.713h0.018
		c1.424-3.359,4.632-5.772,8.433-6.057h37.657c2.743,0,4.97,2.232,4.97,4.963l0.001-0.004v0.018c0,9.864,8.073,17.944,17.944,17.944
		h0.008c9.872,0,17.944-8.08,17.944-17.944V57.807C468.383,47.927,460.311,39.855,450.439,39.855z"/>
</g>
<g id="change2">
	<path style="fill:#FEE266;" d="M487.138,55.985h-0.008c-7.076,0-12.87,5.797-12.87,12.871c0,3.253-2.631,5.876-5.877,5.876v49.384
		c3.246,0,5.877,2.638,5.877,5.884c0,7.084,5.794,12.87,12.87,12.87h0.008c7.076,0,12.862-5.786,12.862-12.87V68.856
		C500,61.781,494.214,55.985,487.138,55.985z"/>
</g>
<path style="opacity:0.1;enable-background:new    ;" d="M468.383,74.732v49.384c3.246,0,5.877,2.638,5.877,5.884V68.856
	C474.26,72.109,471.629,74.732,468.383,74.732z"/>
<path style="opacity:0.6;enable-background:new    ;" d="M437.448,124.115h30.937V74.732h-30.937c-2.743,0-4.962,2.233-4.962,4.979
	v39.44C432.486,121.895,434.703,124.115,437.448,124.115"/>
<path style="opacity:0.1;enable-background:new    ;" d="M450.431,39.855h0.008c9.872,0,17.944,8.072,17.944,17.952v83.247
	c0,9.864-8.072,17.944-17.944,17.944h-0.008c-9.871,0-17.944-8.08-17.944-17.944V57.807
	C432.486,47.927,440.56,39.855,450.431,39.855"/>
</svg>
