<svg  width="742.611385864956" height="518.9708980239361" xmlns="http://www.w3.org/2000/svg" preserveAspectRatio="none" xmlns:xlink="http://www.w3.org/1999/xlink" viewBox="-0.0000012009973547888464 0 742.611385864956 518.9708980239361"><defs><path fill-rule="nonzero" id="path-10" d="M738.01874,171.58381c-66.85691,-4.39129 -96.51442,-40.51189 -90.5571,-115.17148c0.38033,-4.76489 -5.616,-7.23414 -8.64773,-3.53856c-60.5742,73.83881 -155.03416,38.56521 -167.68117,-34.91702c-0.77124,-4.48203 -6.70214,-5.50609 -9.0488,-1.61033c-33.25076,55.19829 -102.4888,63.64837 -126.18728,-12.87365c-1.33543,-4.31256 -7.29856,-4.71835 -9.14745,-0.59962c-30.652,68.28132 -91.25743,98.23651 -153.05347,24.60814c-2.73337,-3.25689 -8.03294,-1.77698 -8.62827,2.43311c-9.40504,66.51278 -36.7106,98.32482 -104.71768,73.55695c-4.00705,-1.45941 -7.84569,2.53992 -6.2109,6.47869c32.52563,78.36981 11.30733,116.15338 -50.6166,134.85851c-3.49135,1.05467 -4.70362,5.41286 -2.18468,8.05044c39.56003,41.42346 42.54956,119.76581 24.11938,176.70026c-1.25809,3.88608 2.44784,7.55291 6.29225,6.17251c55.80688,-20.0386 128.77975,-33.48241 144.769,57.28273c0.7627,4.32992 6.40211,5.57485 8.8716,1.93734c60.33177,-88.86776 144.46058,-61.30195 195.81566,21.71764c1.95169,3.15514 6.56033,3.03702 8.41627,-0.17524c64.41503,-111.47389 161.61695,-122.92104 222.0222,-42.8597c2.55399,3.38526 7.89895,2.13928 8.71754,-2.02165c16.2322,-82.5057 55.16334,-129.18863 106.6267,-139.82697c3.55153,-0.73428 5.03345,-4.97975 2.79322,-7.8321c-36.47823,-46.44933 -37.80222,-106.86178 10.85892,-143.55373c3.64184,-2.74596 1.92966,-8.51731 -2.6216,-8.81629z"></path></defs><g><use xlink:href="#path-10" fill="rgb(77, 91, 198)"></use></g></svg>